**ABCDEFGHIJKLMNOPQRSTUVWXYZabcdefghijklmnopqrstuvwxyz**************************
**PARASOLID !"#$%&'()*+,-./:;<=>?@[\]^_`{|}~0123456789**************************
**PART1;
MC=AMD64;
MC_MODEL=Intel64 Family 6 Model 78 Stepping 3, GenuineIntel;
MC_ID=unknown;
OS=Windows_NT;
OS_RELEASE=unknown;
FRU=Parasolid Version 33.1, build 255,  1- 8-2022;
APPL=SOLIDWORKS 2022-2022167;
SITE=;
USER=unknown;
FORMAT=text;
GUISE=transmit;
KEY=FILE5.5 ft open road.x_t;
DATE=Sat Dec 17 23:46:26 2022;
**PART2;
SCH=SCH_3301255_33103;
USFLD_SIZE=0;
**PART3;
**END_OF_HEADER*****************************************************************
T51 : TRANSMIT FILE created by modeller version 330125523 SCH_3301255_33103_1300
6230 0 10 21 CCCCI7 lattice222 0 CCCI4 mesh1006 0 I8 polyline1008 0 CCCCCCCCCCA1
6 mesh_offset_data206 0 Z1 7 2 3 0 0 0 0 0 0 0 0 1e3 1e-8 0 0 0 1 0 1 4 0 81 255
 2 2 7 5 1 0 0 0 0 0 0 70 11 CI9 list_type0 0 1 uI10 notransmit0 0 1 lCCCDCCDI12
 finger_index0 0 1 dI12 finger_block1012 0 CZ3 0 4 T1 0 0 1 20 1 6 6 11 255 4 5
 0 1 7 8 1 9 0 0 0 12 35 CCCI7 lattice222 0 CCCI4 mesh1006 0 I8 polyline1008 0 C
CCCCCCDI5 owner1040 0 CCCCCCI13 boundary_mesh1006 0 I17 boundary_polyline1008 0
 CCCA16 index_map_offset0 0 1 dA9 index_map82 0 A17 node_id_index_map82 0 A20 sc
hema_embedding_map82 0 A5 child12 0 A14 lowest_node_id0 0 1 dA16 mesh_offset_dat
a206 0 Z7 177 10 11 0 0 0 0 0 0 0 1e3 1e-8 4 12 0 1 0 1 1 13 14 15 16 0 0 17 18
 19 0 0 0 0 0 0 0 100 10 CCCCCCCCCA9 precision229 0 Z8 6 4 0 0 1 0 0 0 1 0 0 0 1
 0 0 0 1 0 ?0 11 9 3 0 1 12 20 1 21 4 0 0 12 12 176 22 23 0 0 0 0 0 0 0 1e3 1e-8
 9 24 7 1 0 1 1 25 26 27 28 0 0 29 30 31 0 0 0 0 0 0 0 100 20 4 9 0 0 1 0 0 0 1
 0 0 0 1 0 0 0 1 0 ?0 11 21 1 0 1 24 32 1 0 9 0 0 12 24 1460 33 34 0 0 0 0 0 0 0
 1e3 1e-8 21 35 12 1 0 1 1 36 37 38 39 0 0 40 41 42 0 0 0 0 0 0 0 100 32 2 21 0
 0 1 0 0 0 1 0 0 0 1 0 0 0 1 0 ?0 81 1 33 1460 43 24 0 0 0 0 0 70 34 0 4 T24 0 0
 3 20 1 44 44 13 255 36 267 0 24 0 45 0 0 46 0 51 255 37 1276 0 47 48 0 0 +.069
 .0727862772493507 .2527936265968205 -1 0 0 .01 0 0 1 31 255 38 1136 0 41 49 0 0
 -.069 .103921212099976 .174962984538827 1 0 0 0 0 -1 .01 29 255 39 1062 0 42 50
 0 .069 .0826889579367665 .254185357606421 19 8 CCCCCCCA5 owner12 0 Z40 89 0 24
 46 0 51 V0 16 255 41 1126 0 ?52 0 53 38 0 0 24 18 255 42 1060 0 54 0 55 39 ?24
 17 255 54 0 56 57 58 42 59 60 0 61 +18 55 1057 0 52 42 62 50 ?24 17 52 0 63 61
 64 55 65 41 0 57 +18 62 1054 0 66 55 67 68 ?24 29 50 1059 0 55 68 39 .069 .0940
185314125603 .1735712535292265 29 68 1056 0 62 69 50 .069 .0957296916570861 .169
2272201753165 29 69 1053 0 67 70 68 .069 .13189152044289 .1175827764747206 18 67
 1051 0 71 62 72 69 ?24 29 70 1045 0 72 73 69 .069 .1237 0 18 72 1043 0 74 67 75
 70 ?24 29 73 1021 0 75 76 70 -.069 .0957296916570861 .1692272201753165 18 75 10
19 0 77 72 78 73 ?24 29 76 1018 0 78 79 73 -.069 .13189152044289 .11758277647472
06 18 78 1016 0 80 75 81 76 ?24 29 79 1015 0 81 82 76 -.069 .0826889579367665 .2
54185357606421 18 81 1013 0 83 78 84 79 ?24 29 82 1012 0 84 85 79 -.069 .0940185
314125603 .1735712535292265 18 84 1010 0 86 81 87 82 ?24 29 85 1009 0 87 88 82 -
.069 .1237 0 18 87 1007 0 89 84 90 85 ?24 29 88 996 0 90 91 85 .069 .1337 .11184
70121112102 18 90 994 0 92 87 93 88 ?24 29 91 993 0 93 94 88 .069 .1337 .01 18 9
3 991 0 95 90 96 91 ?24 29 94 990 0 96 97 91 -.069 .1337 .1118470121112102 18 96
 988 0 98 93 99 94 ?24 29 97 987 0 99 100 94 -.069 .1337 .01 18 99 985 0 101 96
 102 97 ?24 29 100 974 0 102 103 97 .069 .0368284986066279 .2627936265968205 18
 102 972 0 104 99 105 100 ?24 29 103 971 0 105 106 100 .069 .0727862772493507 .2
627936265968205 18 105 969 0 107 102 108 103 ?24 29 106 968 0 108 109 103 -.069
 .0368284986066279 .2627936265968205 18 108 966 0 110 105 111 106 ?24 29 109 965
 0 111 112 106 -.069 .0727862772493507 .2627936265968205 18 111 963 0 113 108 11
4 109 ?24 29 112 957 0 114 115 109 .069 .02915979813649285 .2663756025162055 18
 114 955 0 116 111 117 112 ?24 29 115 954 0 117 118 112 -.069 .02915979813649285
 .2663756025162055 18 117 952 0 119 114 120 115 ?24 29 118 872 0 120 121 115 -.0
486 0 -.0280559396248703 18 120 870 0 122 117 123 118 ?24 29 121 869 0 123 124 1
18 -.0486 0 -.0926559396248703 18 123 867 0 125 120 126 121 ?24 29 124 863 0 126
 127 121 -.069 0 -.02805593962487025 18 126 861 0 128 123 129 124 ?24 29 127 800
 0 129 130 124 -.0486 0 .2249440603751295 18 129 798 0 131 126 132 127 ?24 29 13
0 797 0 132 133 127 -.0486 0 .1603440603751295 18 132 795 0 134 129 135 130 ?24
 29 133 791 0 135 136 130 -.069 0 .2249440603751295 18 135 789 0 137 132 138 133
 ?24 29 136 706 0 138 139 133 .069 198422844727088e-33 -.0926559396248703 18 138
 704 0 140 135 141 136 ?24 29 139 634 0 141 142 136 .069 -343377064908479e-33 .1
603440603751295 18 141 632 0 143 138 144 139 ?24 29 142 506 0 144 145 139 -.054
 .02 -.1247 18 144 504 0 146 141 147 142 ?24 29 145 497 0 147 148 142 -.054 .081
9 0 18 147 495 0 149 144 150 145 ?24 29 148 494 0 150 151 145 -.054 .02 0 18 150
 492 0 152 147 153 148 ?24 29 151 491 0 153 154 148 -.054 .0819 -.1247 18 153 48
9 0 155 150 156 151 ?24 29 154 488 0 156 157 151 -.069 .0819 0 18 156 486 0 158
 153 159 154 ?24 29 157 203 0 160 161 154 -.069 .0819 -.1397 18 160 178 0 162 16
3 164 157 ?24 29 161 204 0 164 165 157 -.069 0 -.1397 18 164 179 0 166 160 167 1
61 ?24 29 165 206 0 167 168 161 -.069 -562772976849645e-33 .2627936265968205 18
 167 181 0 169 164 170 165 ?24 29 168 64 0 159 171 165 .069 .0819 -.1397 18 159
 62 0 172 156 173 168 ?24 29 171 61 0 173 174 168 .069 0 -.1397 18 173 59 0 175
 159 163 171 ?24 29 174 55 0 163 176 171 .069 -562772976849645e-33 .262793626596
8205 18 163 53 0 177 173 160 174 ?24 29 176 456 0 170 178 174 .054 .0819 -.1247
 18 170 408 0 179 167 180 176 ?24 29 178 457 0 180 181 176 .069 .0819 -502621471
326703e-32 18 180 410 0 182 170 183 178 ?24 29 181 459 0 183 184 178 .054 .0819
 103148328501177e-31 18 183 409 0 185 180 186 181 ?24 29 184 461 0 186 187 181 .
054 .02 406275813902808e-32 18 186 404 0 188 183 189 184 ?24 29 187 462 0 189 19
0 184 .054 .02 -.1247 18 189 405 0 191 186 192 187 ?24 29 190 695 0 193 194 187
 .069 0 .2249440603751295 18 193 668 0 195 196 197 190 ?24 29 194 697 0 192 198
 190 .0486 0 .2249440603751295 18 192 665 0 199 189 196 194 ?24 29 198 698 0 196
 200 194 .0486 -562772976849645e-33 .1603440603751295 18 196 667 0 201 192 193 1
98 ?24 29 200 767 0 202 203 198 .069 -562772976849645e-33 -.0280559396248703 18
 202 740 0 204 205 206 200 ?24 29 203 769 0 197 207 200 .0486 -562772976849645e-
33 -.0280559396248703 18 197 737 0 208 193 205 203 ?24 29 207 770 0 205 209 203
 .0486 -562772976849645e-33 -.0926559396248703 18 205 739 0 210 197 202 207 ?24
 29 209 855 0 206 211 207 -.069 -562772976849645e-33 .1603440603751295 18 206 82
8 0 212 202 213 209 ?24 29 211 927 0 213 0 209 -.069 -562772976849645e-33 -.0926
559396248703 18 213 900 0 214 206 0 211 ?24 17 214 0 215 216 217 213 166 218 0 2
19 -15 255 215 603 0 220 221 0 17 216 0 215 212 214 126 222 223 0 0 -17 217 0 21
5 214 224 164 162 225 0 0 -17 166 0 226 227 219 164 214 218 0 228 +16 218 865 0
 ?166 229 230 231 229 232 24 17 219 0 226 166 125 213 233 234 0 222 +15 226 877
 0 219 45 0 17 125 0 226 219 122 123 235 236 0 237 -17 233 0 238 239 222 123 219
 234 0 0 -16 234 890 0 ?219 240 241 242 0 0 24 17 222 0 238 233 243 213 216 223
 0 0 +15 238 904 0 222 244 0 17 243 0 238 222 239 126 122 241 0 216 +16 223 883
 0 ?222 245 0 246 0 0 24 16 245 891 0 ?237 236 223 247 0 0 24 31 246 924 0 223 2
48 242 0 +-.069 -109941004398851e-33 -.0603559396248703 1 0 0 0 0 -1 .0323 30 25
5 248 925 0 236 247 246 0 +-.0486 -562772976849645e-33 -.0280559396248703 0 0 1
 30 242 922 0 234 246 249 0 +-.0486 -562772976849645e-33 -.0926559396248703 -1 0
 0 30 249 921 0 241 242 250 0 +-.0486 -562772976849645e-33 -.0280559396248703 -1
 0 0 16 241 886 0 ?243 234 236 249 0 0 24 31 250 854 0 251 249 252 0 +-.0486 0 .
1926440603751295 1 0 0 0 0 -1 .0323 16 251 819 0 ?253 254 240 250 0 0 24 30 252
 853 0 254 250 255 0 +-.0486 0 .2249440603751295 0 87116559883846e-31 1 16 254 8
22 0 ?256 257 251 252 0 0 24 31 255 852 0 240 252 258 0 +-.069 0 .19264406037512
95 1 0 0 0 0 -1 .0323 16 240 811 0 ?259 251 234 255 0 0 24 30 258 850 0 260 255
 261 0 +-.0486 -562772976849645e-33 .1603440603751295 -1 0 0 16 260 818 0 ?262 2
63 257 258 0 0 24 30 261 849 0 257 258 264 0 +-.0486 0 .2249440603751295 -1 0 0
 16 257 814 0 ?265 260 254 261 0 0 24 31 264 766 0 266 261 267 0 +.0486 -1099410
04398851e-33 -.0603559396248703 1 0 0 0 0 -1 .0323 16 266 723 0 ?210 268 263 264
 0 0 24 30 267 765 0 268 264 269 0 +.0486 -562772976849645e-33 -.028055939624870
3 0 0 1 16 268 727 0 ?270 271 266 267 0 0 24 31 269 764 0 263 267 272 0 +.069 -1
09941004398851e-33 -.0603559396248703 1 0 0 0 0 -1 .0323 16 263 731 0 ?140 266 2
60 269 0 0 24 30 272 762 0 273 269 274 0 +.0486 -562772976849645e-33 -.028055939
6248703 1 0 0 16 273 730 0 ?275 276 271 272 0 0 24 30 274 761 0 271 272 277 0 +.
0486 -562772976849645e-33 -.0926559396248703 1 0 0 16 271 726 0 ?278 273 268 274
 0 0 24 31 277 694 0 279 274 280 0 +.0486 0 .1926440603751295 1 0 0 0 0 -1 .0323
 16 279 651 0 ?201 281 276 277 0 0 24 30 280 693 0 281 277 282 0 +.0486 0 .22494
40603751295 0 87116559883846e-31 1 16 281 655 0 ?283 284 279 280 0 0 24 31 282 6
92 0 276 280 285 0 +.069 0 .1926440603751295 1 0 0 0 0 -1 .0323 16 276 659 0 ?14
3 279 273 282 0 0 24 30 285 690 0 286 282 287 0 +.0486 0 .2249440603751295 1 0 0
 16 286 658 0 ?288 289 284 285 0 0 24 30 287 689 0 284 285 290 0 +.0486 -5627729
76849645e-33 .1603440603751295 1 0 0 16 284 654 0 ?291 286 281 287 0 0 24 30 290
 589 0 292 287 293 0 +-.054 .0819 2300067879033325e-32 0 0 -1 16 292 536 0 ?294
 295 296 290 0 0 24 30 293 588 0 295 290 297 0 +-.069 .0819 -502621471326703e-32
 1 0 102273650422565e-29 16 295 535 0 ?298 299 292 293 0 0 24 30 297 584 0 289 2
93 300 0 +-.054 .02 406275813902808e-32 0 -1112893970153524e-31 1 16 289 528 0 ?
152 301 286 297 0 0 24 30 300 581 0 301 297 302 0 +-.054 .2074989251546365 -.124
7 0 -1 -1010028224731764e-31 16 301 521 0 ?146 296 289 300 0 0 24 30 302 580 0 2
96 300 303 0 +-.054 .2074989251546365 2300067879033325e-32 0 -1 -101002822473176
4e-31 16 296 520 0 ?304 292 301 302 0 0 24 30 303 455 0 305 302 306 0 +.054 .081
9 2300067879033325e-32 0 0 -1 16 305 389 0 ?179 230 307 303 0 0 24 30 306 450 0
 299 303 308 0 +.054 .02 406275813902808e-32 0 -1112893970153524e-31 1 16 299 39
1 0 ?188 309 295 306 0 0 24 30 308 447 0 309 306 310 0 +.054 .2074989251546365 2
300067879033325e-32 0 -1 -1010028224731764e-31 16 309 385 0 ?311 312 299 308 0 0
 24 30 310 446 0 312 308 313 0 +.054 .2074989251546365 -.1247 0 -1 -101002822473
1764e-31 16 312 390 0 ?191 307 309 310 0 0 24 30 313 444 0 307 310 314 0 +.069 .
0819 -502621471326703e-32 -1 0 102273650422565e-29 16 307 384 0 ?315 305 312 313
 0 0 24 31 314 7 0 316 313 317 0 +.069 .0157395723137565 .2551440603751295 1 0 0
 0 0 -1 .0175 16 316 956 0 ?177 318 319 314 0 0 24 30 317 11 0 320 314 321 0 +.0
69 -562772976849645e-33 .2627936265968205 0 214150161911291e-32 -1 16 320 9 0 ?3
22 323 324 317 318 324 24 30 321 19 0 323 317 325 0 +.069 0 -.1397 0 1 0 16 323
 17 0 ?172 326 320 321 0 0 24 30 325 23 0 326 321 327 0 +.069 .0819 -.1397 0 0 1
 16 326 21 0 ?182 328 323 325 0 0 24 30 327 35 0 328 325 329 0 +.069 .02 0 0 1 0
 16 328 353 0 ?330 331 326 327 0 0 24 30 329 39 0 331 327 332 0 +.069 .1337 0 0
 0 1 16 331 992 0 ?333 334 328 329 0 0 24 30 332 43 0 334 329 335 0 +.069 .1337
 .115 0 -.573576436351042 .819152044288994 16 334 1052 0 ?64 336 331 332 0 0 24
 30 335 47 0 336 332 337 0 +.069 .0943526564663185 .171193830238225 0 -.13917310
09600588 .990268068741571 16 336 1058 0 ?61 338 334 335 0 0 24 30 337 51 0 338 3
35 339 0 +.069 .0814791446275131 .2627936265968205 0 -1 -2220446049250315e-30 16
 338 970 0 ?340 341 336 337 0 0 24 31 339 194 0 230 337 231 0 +-.069 .0157395723
137565 .2551440603751295 1 0 0 0 0 -1 .0175 16 230 953 0 ?169 218 305 339 0 0 24
 30 231 192 0 232 339 342 0 +-.069 0 0 0 0 -1 16 232 158 0 ?137 225 229 231 218
 229 24 30 342 191 0 225 231 343 0 +-.069 0 -.1397 0 1 0 16 225 154 0 ?162 344 2
32 342 0 0 24 30 343 190 0 344 342 345 0 +-.069 .0819 -.1397 0 0 1 16 344 150 0
 ?158 346 225 343 0 0 24 30 345 187 0 346 343 347 0 +-.069 .02 0 0 1 0 16 346 48
7 0 ?348 349 344 345 0 0 24 30 347 186 0 349 345 350 0 +-.069 .1337 0 0 0 1 16 3
49 986 0 ?351 352 346 347 0 0 24 30 350 185 0 352 347 353 0 +-.069 .1337 .115 0
 -.573576436351042 .819152044288994 16 352 1017 0 ?354 355 349 350 0 0 24 30 353
 184 0 355 350 356 0 +-.069 .0943526564663185 .171193830238225 0 -.1391731009600
588 .990268068741571 16 355 1011 0 ?58 319 352 353 0 0 24 30 356 183 0 319 353 3
57 0 +-.069 .0814791446275131 .2627936265968205 0 -1 -2220446049250315e-30 16 31
9 964 0 ?358 316 355 356 0 0 24 30 357 260 0 341 356 359 0 +.069 .02 0 -1 0 0 16
 341 356 0 ?360 361 338 357 0 0 24 30 359 261 0 361 357 362 0 +.069 .02 -.1247 -
1 0 0 16 361 368 0 ?363 364 341 359 0 0 24 30 362 262 0 364 359 365 0 +.069 .081
9 -.1247 -1 0 0 16 364 376 0 ?155 366 361 362 0 0 24 30 365 263 0 366 362 367 0
 +.069 .0819 -.1397 -1 0 0 16 366 215 0 ?368 369 364 365 0 0 24 30 367 264 0 369
 365 370 0 +.069 0 -.1397 -1 0 0 16 369 216 0 ?228 371 366 367 0 0 24 30 370 266
 0 371 367 372 0 +.069 -562772976849645e-33 .2627936265968205 -1 0 0 16 371 218
 0 ?373 374 369 370 0 0 24 30 372 960 0 374 370 375 0 +.069 .02915979813649285 .
2663756025162055 -1 0 0 16 374 958 0 ?376 377 371 372 0 0 24 30 375 977 0 377 37
2 378 0 +.069 .0727862772493507 .2627936265968205 -1 0 0 16 377 975 0 ?379 380 3
74 375 0 0 24 30 378 982 0 380 375 381 0 +.069 .0368284986066279 .26279362659682
05 1 0 0 16 380 980 0 ?104 382 377 378 0 0 24 30 381 999 0 382 378 383 0 -.069 .
1337 .1118470121112102 -1 0 0 16 382 997 0 ?92 384 380 381 0 0 24 30 383 1004 0
 384 381 385 0 +.069 .1337 .01 -1 0 0 16 384 1002 0 ?386 387 382 383 0 0 24 31 3
85 1024 0 387 383 388 0 --.069 .0727862772493507 .2527936265968205 1 0 0 0 0 -1
 .01 16 387 1022 0 ?83 389 384 385 0 0 24 31 388 1031 0 389 385 390 0 --.069 .12
37 .1118470121112102 1 0 0 0 0 -1 .01 16 389 1029 0 ?98 391 387 388 0 0 24 31 39
0 1038 0 391 388 392 0 --.069 .1237 .01 1 0 0 0 0 -1 .01 16 391 1036 0 ?89 393 3
89 390 0 0 24 30 392 1048 0 393 390 394 0 -.069 .1237 0 -1 0 0 16 393 1046 0 ?74
 395 391 392 0 0 24 31 394 1065 0 395 392 396 0 +.069 .0727862772493507 .2527936
265968205 1 0 0 0 0 -1 .01 16 395 1063 0 ?107 397 393 394 0 0 24 31 396 1073 0 3
97 394 398 0 +.069 .1237 .1118470121112102 1 0 0 0 0 -1 .01 16 397 1071 0 ?71 39
9 395 396 0 0 24 31 398 1081 0 399 396 400 0 +.069 .1237 .01 1 0 0 0 0 -1 .01 16
 399 1079 0 ?95 401 397 398 0 0 24 30 400 1089 0 401 398 402 0 -.069 .0957296916
570861 .1692272201753165 -1 0 0 16 401 1087 0 ?66 403 399 400 0 0 24 30 402 1094
 0 403 400 404 0 +.069 .13189152044289 .1175827764747206 -1 0 0 16 403 1092 0 ?4
05 60 401 402 0 0 24 30 404 1099 0 60 402 406 0 -.069 .0826889579367665 .2541853
57606421 -1 0 0 16 60 1097 0 ?54 407 403 404 0 0 24 30 406 1104 0 407 404 408 0
 +-.069 .0940185314125603 .1735712535292265 -1 0 0 16 407 1102 0 ?409 410 60 406
 0 0 24 31 408 1133 0 410 406 411 0 +-.069 .0368284986066279 .2727936265968205 1
 0 0 0 0 -1 .01 16 410 1107 0 ?110 412 407 408 0 0 24 31 411 1134 0 412 408 49 0
 -.069 .0368284986066279 .2727936265968205 1 0 0 0 0 -1 .01 16 412 1113 0 ?116 5
3 410 411 0 0 24 31 49 1135 0 53 411 38 0 +-.069 .103921212099976 .1749629845388
27 1 0 0 0 0 -1 .01 16 53 1120 0 ?77 41 412 49 0 0 24 17 77 0 215 413 414 75 86
 53 0 354 +17 413 0 215 98 77 78 354 352 0 0 -17 414 0 215 77 83 84 58 355 0 0 -
17 86 0 415 416 417 84 77 53 0 409 -17 354 0 418 66 405 75 413 352 0 417 +15 418
 223 0 419 420 0 17 66 0 418 419 354 62 417 401 0 64 +17 405 0 418 354 419 78 42
1 403 0 413 +17 417 0 415 86 65 75 66 401 0 0 -15 415 1244 0 65 422 0 17 65 0 41
5 417 416 62 52 41 0 0 -17 416 0 415 65 86 55 409 407 0 0 -17 409 0 56 58 57 84
 416 407 0 414 +15 56 221 0 57 423 0 17 58 0 56 54 409 81 414 355 0 59 +17 57 0
 56 409 54 55 61 336 0 416 -17 61 0 63 107 52 42 57 336 0 424 +15 63 468 0 330 4
25 0 17 107 0 63 340 61 105 424 395 0 426 +17 424 0 427 59 428 42 107 395 0 0 -1
5 427 1265 0 424 47 0 17 59 0 427 113 424 81 54 60 0 0 -17 428 0 427 424 113 105
 379 377 0 0 -17 113 0 427 428 59 111 83 387 0 379 -17 379 0 429 358 426 111 428
 377 0 430 +15 429 219 0 358 431 0 17 358 0 429 104 379 108 430 319 0 432 +17 42
6 0 429 379 104 105 340 338 0 428 -17 430 0 215 83 110 111 358 319 0 0 -17 83 0
 215 414 430 81 113 387 0 58 +17 110 0 215 430 433 108 119 410 0 358 +17 433 0 2
15 110 434 117 169 230 0 0 -17 119 0 435 436 432 117 110 410 0 376 -15 435 1181
 0 437 438 0 17 436 0 435 437 119 114 376 374 0 0 -17 432 0 435 119 437 108 104
 380 0 0 -17 376 0 439 169 440 117 436 374 0 433 +15 439 241 0 440 441 0 17 169
 0 439 442 376 167 433 230 0 434 +17 440 0 439 376 442 114 177 316 0 436 -17 442
 0 439 440 169 163 373 371 0 0 -17 177 0 63 322 116 163 440 316 0 443 +17 322 0
 63 143 177 193 443 320 0 0 +17 116 0 63 177 340 114 437 412 0 440 +17 443 0 226
 373 288 163 322 320 0 442 -17 373 0 226 137 443 167 442 371 0 0 +17 288 0 226 4
43 283 193 199 286 0 322 +17 283 0 226 288 444 192 445 281 0 0 +17 199 0 446 201
 195 192 288 286 0 447 -15 446 672 0 195 448 0 17 201 0 446 291 199 196 447 279
 0 445 +17 195 0 446 199 291 193 143 276 0 288 -17 447 0 449 445 445 192 201 279
 0 283 -15 449 679 0 447 450 0 17 445 0 449 447 447 196 283 281 0 444 -17 444 0
 226 283 451 196 291 284 0 0 -17 451 0 226 444 275 141 452 324 0 0 -17 291 0 446
 195 201 141 444 284 0 451 +17 275 0 226 451 270 202 208 273 0 452 +17 452 0 63
 140 143 202 451 324 0 0 +16 324 633 0 ?452 320 318 317 320 318 24 16 318 705 0
 ?175 324 316 317 324 320 24 17 175 0 63 172 140 173 453 318 0 227 +17 172 0 63
 182 175 159 454 323 0 455 +17 140 0 63 175 452 138 204 263 0 278 +17 453 0 226
 456 227 138 175 318 0 0 -17 227 0 226 453 166 173 228 369 0 454 -17 228 0 457 1
62 454 164 227 369 0 217 +17 454 0 457 228 455 173 172 323 0 0 -15 457 235 0 162
 458 0 17 455 0 457 454 162 159 368 366 0 459 -17 162 0 457 455 228 160 217 225
 0 368 +17 368 0 460 158 459 160 455 366 0 224 +17 459 0 460 368 461 159 182 326
 0 0 -15 460 233 0 158 462 0 17 461 0 460 459 185 180 315 307 0 463 -17 182 0 63
 330 172 180 459 326 0 461 +17 330 0 63 95 182 72 463 328 0 464 +17 95 0 63 333
 330 93 464 399 0 465 +17 463 0 466 315 74 180 330 328 0 0 -17 464 0 467 468 469
 72 95 399 0 0 -15 467 1202 0 464 470 0 17 468 0 467 101 464 87 74 393 0 0 -17 4
69 0 467 464 101 93 386 384 0 0 -17 101 0 467 469 468 99 89 391 0 386 -17 386 0
 471 351 465 99 469 384 0 220 +15 471 225 0 465 472 0 17 351 0 471 92 386 96 220
 349 0 473 +17 465 0 471 386 92 93 333 331 0 469 -17 220 0 215 89 98 99 351 349
 0 0 -17 89 0 215 474 220 87 101 391 0 348 +17 98 0 215 220 413 96 80 389 0 351
 +17 80 0 475 421 473 78 98 389 0 405 -15 475 1223 0 476 477 0 17 421 0 475 476
 80 67 405 403 0 0 -17 473 0 475 80 476 96 92 382 0 0 -17 476 0 475 473 421 90 7
1 397 0 0 -17 92 0 471 465 351 90 473 382 0 333 +17 333 0 63 71 95 90 465 331 0
 476 +17 71 0 63 64 333 67 476 397 0 419 +17 64 0 63 52 71 62 419 334 0 65 +17 4
19 0 418 405 66 67 64 334 0 421 -14 255 477 1222 478 ?422 470 475 36 479 +0 0 42
2 470 51 81 1 478 1432 480 477 481 0 0 482 483 14 422 1243 482 ?47 477 415 36 48
 -0 0 47 477 51 14 470 1201 484 ?477 438 467 36 485 +0 0 477 438 51 51 479 1234
 0 477 485 48 0 +.069 .1237 .1118470121112102 -1 0 0 .01 0 0 1 13 51 90 0 0 0 0
 0 0 40 45 14 45 879 486 ?487 0 226 36 488 -0 0 487 0 51 81 1 486 1435 480 45 48
9 0 484 490 491 14 487 381 490 ?492 45 493 36 494 -0 0 492 45 51 50 255 488 252
 0 45 495 496 0 +.069 0 0 0 1 0 0 0 1 50 495 251 0 458 497 488 0 +.069 0 -.1397
 0 0 1 1 0 0 51 496 254 0 441 488 498 0 -.069 .0157395723137565 .255144060375129
5 -1 0 0 .0175 0 0 1 14 441 242 499 ?458 500 439 36 496 -0 0 458 500 51 51 498 1
192 0 438 496 485 0 +.069 .0368284986066279 .2727936265968205 -1 0 0 .01 0 0 1 1
4 438 1180 501 ?470 502 435 36 498 -0 0 470 502 51 51 485 1213 0 470 498 479 0 +
.069 .1237 .01 -1 0 0 .01 0 0 1 81 1 501 1438 480 438 503 0 499 504 505 14 502 9
09 504 ?438 244 506 36 507 -0 0 438 244 51 81 1 504 1439 480 502 508 0 501 509 5
10 14 244 901 509 ?502 511 238 36 512 -0 0 502 511 51 15 506 911 0 237 502 0 50
 507 920 0 502 0 512 0 +-.0486 -109941004398851e-33 -.0603559396248703 -1 0 0 0
 0 -1 51 512 917 0 244 507 513 0 --.0486 -109941004398851e-33 -.0603559396248703
 -1 0 0 .0323 0 0 1 50 513 848 0 511 512 514 0 +-.0486 0 .1926440603751295 -1 0
 0 0 0 -1 14 511 837 515 ?244 516 517 36 513 -0 0 244 516 51 51 514 845 0 516 51
3 518 0 --.0486 0 .1926440603751295 -1 0 0 .0323 0 0 1 14 516 829 519 ?511 520 5
21 36 514 -0 0 511 520 51 50 518 760 0 520 514 522 0 +.0486 -109941004398851e-33
 -.0603559396248703 1 0 0 0 0 -1 14 520 749 523 ?516 524 525 36 518 -0 0 516 524
 51 51 522 757 0 524 518 526 0 +.0486 -109941004398851e-33 -.0603559396248703 1
 0 0 .0323 0 0 -1 14 524 741 527 ?520 450 528 36 522 +0 0 520 450 51 50 526 688
 0 450 522 529 0 +.0486 0 .1926440603751295 1 0 0 0 0 -1 14 450 677 530 ?524 448
 449 36 526 -0 0 524 448 51 51 529 685 0 448 526 531 0 +.0486 0 .192644060375129
5 1 0 0 .0323 0 0 -1 14 448 669 532 ?450 533 446 36 529 +0 0 450 533 51 50 531 5
74 0 533 529 534 0 +-.054 .2074989251546365 2300067879033325e-32 1 0 0 0 0 -1 14
 533 554 535 ?448 536 537 36 531 +0 0 448 536 51 50 534 440 0 536 531 538 0 +.05
4 .2074989251546365 2300067879033325e-32 1 0 0 0 0 -1 14 536 419 539 ?533 221 54
0 36 534 -0 0 533 221 51 50 538 3 0 425 534 541 0 +.069 .0157395723137565 .25514
40603751295 1 0 0 0 0 -1 14 425 1 542 ?221 431 63 36 538 +0 0 221 431 51 50 541
 182 0 221 538 543 0 +-.069 .0157395723137565 .2551440603751295 1 0 0 0 0 -1 14
 221 120 544 ?536 425 215 36 541 -0 0 536 425 51 50 543 243 0 431 541 545 0 +.06
9 .0814791446275131 .2627936265968205 0 2220446049250315e-30 -1 0 1 222044604925
0315e-30 14 431 220 546 ?425 423 429 36 543 -0 0 425 423 51 50 545 244 0 423 543
 547 0 +.069 .0943526564663185 .171193830238225 0 -.990268068741571 -.1391731009
600588 0 .1391731009600588 -.990268068741571 14 423 222 548 ?431 420 56 36 545 -
0 0 431 420 51 50 547 245 0 420 545 549 0 +.069 .1337 .115 0 -.819152044288995 -
.573576436351042 0 .573576436351042 -.819152044288995 14 420 224 550 ?423 472 41
8 36 547 -0 0 423 472 51 50 549 246 0 472 547 551 0 +.069 .1337 0 0 -1 0 0 0 -1
 14 472 226 552 ?420 462 471 36 549 -0 0 420 462 51 50 551 247 0 500 549 553 0 +
.069 .02 0 0 0 1 1 0 0 14 500 365 554 ?441 492 466 36 551 -0 0 441 492 51 50 553
 248 0 492 551 494 0 +.069 .02 -.1247 0 -1 -1112893970153524e-31 0 1112893970153
524e-31 -1 14 492 373 555 ?500 487 556 36 553 -0 0 500 487 51 50 494 249 0 487 5
53 497 0 +.069 .0819 -.1247 0 2241968951181655e-31 -1 0 1 2241968951181655e-31 5
0 497 250 0 462 494 495 0 +.069 .0819 -.1397 0 -1 0 0 0 -1 14 462 234 557 ?472 4
58 460 36 497 -0 0 472 458 51 81 1 557 1457 480 462 558 0 555 559 560 14 458 236
 559 ?462 441 457 36 495 -0 0 462 441 51 81 1 559 1458 480 458 561 0 557 562 563
 80 255 1 480 564 565 9000 1 1 1 1 1 1 1 1 0 FFFFTFTFFFFFFF1 81 1 561 1343 566 4
58 0 559 567 558 568 81 1 562 1459 480 47 569 0 559 0 570 82 255 1 563 126130607
0 14 47 1264 562 ?0 422 427 36 37 +0 0 0 422 51 81 1 569 1365 566 47 0 562 571 0
 572 82 1 570 1447559389 80 1 566 0 573 8001 0 0 0 0 3 5 0 0 0 FFFFTFTFFFFFFF2 8
1 1 571 1364 566 422 0 482 481 569 574 83 255 3 572 .792156862745098 .8196078431
37255 .933333333333333 81 1 482 1433 480 422 571 0 478 484 575 81 1 481 1363 566
 477 0 478 576 571 577 83 3 574 .792156862745098 .819607843137255 .9333333333333
33 81 1 576 1362 566 470 0 484 503 481 578 83 3 577 .792156862745098 .8196078431
37255 .933333333333333 81 1 484 1434 480 470 576 0 482 486 579 81 1 503 1361 566
 438 0 501 508 576 580 83 3 578 .792156862745098 .819607843137255 .9333333333333
33 81 1 508 1360 566 502 0 504 581 503 582 83 3 580 .792156862745098 .8196078431
37255 .933333333333333 81 1 581 1359 566 244 0 509 583 508 584 83 3 582 .7921568
62745098 .819607843137255 .933333333333333 81 1 509 1440 480 244 581 0 504 515 5
85 81 1 583 1358 566 511 0 515 586 581 587 83 3 584 .792156862745098 .8196078431
37255 .933333333333333 81 1 515 1441 480 511 583 0 509 519 588 81 1 586 1357 566
 516 0 519 589 583 590 83 3 587 .792156862745098 .819607843137255 .9333333333333
33 81 1 519 1442 480 516 586 0 515 523 591 81 1 589 1356 566 520 0 523 592 586 5
93 83 3 590 .792156862745098 .819607843137255 .933333333333333 81 1 523 1443 480
 520 589 0 519 527 594 81 1 592 1355 566 524 0 527 595 589 596 83 3 593 .7921568
62745098 .819607843137255 .933333333333333 81 1 527 1444 480 524 592 0 523 530 5
97 81 1 595 1354 566 450 0 530 598 592 599 83 3 596 .792156862745098 .8196078431
37255 .933333333333333 81 1 530 1445 480 450 595 0 527 532 600 81 1 598 1353 566
 448 0 532 601 595 602 83 3 599 .792156862745098 .819607843137255 .9333333333333
33 81 1 532 1446 480 448 598 0 530 535 603 81 1 601 1352 566 533 0 535 604 598 6
05 83 3 602 .792156862745098 .819607843137255 .933333333333333 81 1 535 1447 480
 533 601 0 532 539 606 81 1 604 1351 566 536 0 539 607 601 608 83 3 605 .7921568
62745098 .819607843137255 .933333333333333 81 1 539 1448 480 536 604 0 535 542 6
09 81 1 607 1350 566 221 0 544 610 604 611 83 3 608 .792156862745098 .8196078431
37255 .933333333333333 81 1 544 1450 480 221 607 0 542 546 612 81 1 610 1349 566
 425 0 542 613 607 614 83 3 611 .792156862745098 .819607843137255 .9333333333333
33 81 1 542 1449 480 425 610 0 539 544 615 81 1 613 1348 566 431 0 546 616 610 6
17 83 3 614 .792156862745098 .819607843137255 .933333333333333 81 1 546 1451 480
 431 613 0 544 548 618 81 1 616 1347 566 423 0 548 619 613 620 83 3 617 .7921568
62745098 .819607843137255 .933333333333333 81 1 548 1452 480 423 616 0 546 550 6
21 81 1 619 1346 566 420 0 550 622 616 623 83 3 620 .792156862745098 .8196078431
37255 .933333333333333 81 1 550 1453 480 420 619 0 548 552 624 81 1 622 1345 566
 472 0 552 558 619 625 83 3 623 .792156862745098 .819607843137255 .9333333333333
33 81 1 552 1454 480 472 622 0 550 554 626 81 1 558 1344 566 462 0 557 561 622 6
27 83 3 625 .792156862745098 .819607843137255 .933333333333333 83 3 627 .7921568
62745098 .819607843137255 .933333333333333 81 1 554 1455 480 500 628 0 552 555 6
29 82 1 626 1259995357 81 1 628 1341 566 500 0 554 630 567 631 81 1 555 1456 480
 492 630 0 554 557 632 82 1 629 1317273821 81 1 630 1340 566 492 0 555 633 628 6
34 82 1 632 1318060249 81 1 633 1339 566 487 0 490 489 630 635 83 3 634 .7921568
62745098 .819607843137255 .933333333333333 81 1 490 1436 480 487 633 0 486 499 6
36 81 1 489 1338 566 45 0 486 0 633 637 83 3 635 .792156862745098 .8196078431372
55 .933333333333333 83 3 637 .792156862745098 .819607843137255 .933333333333333
 81 1 499 1437 480 441 567 0 490 501 638 82 1 636 1318846681 81 1 567 1342 566 4
41 0 499 628 561 639 82 1 638 1262092509 83 3 639 .792156862745098 .819607843137
255 .933333333333333 83 3 631 .792156862745098 .819607843137255 .933333333333333
 82 1 624 1259733213 82 1 621 1259471069 82 1 618 1259208925 82 1 615 1241645277
 82 1 612 1256718557 82 1 609 1292501208 82 1 606 1339752665 82 1 603 1389494491
 82 1 600 1385562331 82 1 597 1396244699 82 1 594 1392312539 82 1 591 1420886236
 82 1 588 1416823004 82 1 585 1427898588 82 1 579 1441661149 82 1 575 1445593309
 79 255 15 573 SDL/TYSA_COLOUR83 3 568 .792156862745098 .819607843137255 .933333
333333333 79 14 565 SWEntUnchanged82 1 560 1261043929 15 556 371 0 363 492 0 17
 363 0 556 152 640 144 641 361 0 642 +17 152 0 556 643 363 150 642 289 0 360 +17
 640 0 556 363 643 189 188 299 0 641 -17 641 0 493 644 146 189 363 361 0 0 -17 6
42 0 537 645 304 144 152 289 0 0 -15 537 557 0 646 533 0 17 645 0 537 646 642 15
3 146 301 0 0 -17 304 0 537 642 646 150 149 296 0 0 +17 646 0 537 304 645 147 29
4 292 0 0 -17 149 0 466 647 360 147 304 296 0 298 -15 466 363 0 348 500 0 17 647
 0 466 348 149 156 298 295 0 474 -17 360 0 466 149 311 150 643 341 0 304 +17 298
 0 460 294 158 147 647 295 0 646 +17 294 0 460 648 298 153 646 292 0 645 +17 158
 0 460 298 368 156 224 344 0 647 +17 224 0 215 217 474 160 158 344 0 0 -17 474 0
 215 224 89 156 348 346 0 0 -17 348 0 466 74 647 87 474 346 0 468 +17 74 0 466 4
63 348 72 468 393 0 330 +17 648 0 460 185 294 170 155 364 0 0 -17 185 0 460 461
 648 183 179 305 0 649 -17 155 0 493 146 644 153 648 364 0 294 +15 493 379 0 155
 487 0 17 146 0 493 641 155 144 645 301 0 363 +17 644 0 493 155 641 170 191 312
 0 648 -17 191 0 540 188 179 189 644 312 0 640 +15 540 422 0 649 536 0 17 188 0
 540 649 191 186 640 299 0 311 +17 179 0 540 191 649 170 185 305 0 644 +17 649 0
 540 179 188 183 311 309 0 315 -17 311 0 466 360 315 186 649 309 0 643 +17 315 0
 466 311 463 183 461 307 0 0 +17 643 0 556 640 152 186 360 341 0 0 -15 528 744 0
 204 524 0 17 204 0 528 208 278 202 140 263 0 275 -17 208 0 528 210 204 197 275
 273 0 650 -17 278 0 528 204 210 138 456 271 0 453 +17 210 0 528 278 208 205 650
 266 0 651 +17 456 0 226 270 453 205 278 271 0 0 -17 270 0 226 275 456 197 651 2
68 0 0 +17 651 0 525 650 650 205 270 268 0 456 -15 525 751 0 650 520 0 17 650 0
 525 651 651 197 210 266 0 270 -15 521 832 0 259 516 0 17 259 0 521 652 265 206
 653 240 0 0 +17 652 0 521 654 259 132 262 260 0 0 -17 265 0 521 259 654 135 131
 257 0 653 +17 653 0 215 434 212 135 259 240 0 0 -17 434 0 215 433 653 167 137 2
32 0 373 -17 212 0 215 653 216 206 128 229 0 262 -17 128 0 226 122 262 126 212 2
29 0 243 +16 229 793 0 ?128 232 218 231 232 218 24 17 262 0 226 128 134 206 652
 260 0 259 +17 134 0 226 262 131 132 256 254 0 253 -17 131 0 226 134 137 129 265
 257 0 256 -17 256 0 517 253 253 129 134 254 0 654 +17 253 0 517 256 256 132 654
 251 0 652 +15 517 839 0 253 511 0 17 654 0 521 265 652 129 253 251 0 0 -17 137
 0 226 131 373 135 434 232 0 265 +17 122 0 226 125 128 120 243 241 0 235 -17 235
 0 506 237 237 120 125 236 0 239 +17 237 0 506 235 235 123 239 245 0 233 +16 236
 894 0 ?235 241 245 248 0 0 24 17 239 0 238 243 233 120 237 245 0 0 -82 1 510 14
23835356 82 1 505 1439695069 82 1 491 1435173084 51 48 1255 0 422 479 37 0 +.069
 .103921212099976 .174962984538827 1 0 0 .01 0 0 -1 82 1 483 1443627229 17 143 0
 63 452 322 141 195 276 0 291 +17 340 0 63 116 107 102 426 338 0 437 +17 437 0 4
35 432 436 102 116 412 0 0 -17 104 0 429 426 358 102 432 380 0 340 +31 247 926 0
 245 0 248 0 +-.0486 -109941004398851e-33 -.0603559396248703 1 0 0 0 0 -1 .0323
 19 46 268 0 24 0 40 36 S0 74 4 CI16 index_map_offset0 0 1 dCCZ20 44 3 0 0 562 5
69 33 0 0 0 0 0 0 0 0 0 0 0 0 0 0 0 0 0 80 1 43 655 656 8017 0 0 0 0 0 0 0 0 0 T
TTTTTTTTTTTTF3 79 13 656 SDL/TYSA_NAME81 1 22 176 43 12 0 0 0 0 0 70 23 0 4 T12
 0 0 3 20 1 657 657 13 25 99 0 12 0 658 0 0 659 0 50 26 94 0 658 660 0 0 +1 -.03
23 2.19264406037513 0 0 -1 -1 0 0 30 27 98 0 30 661 0 0 +1 -.0323 2.192644060375
13 -1 0 0 29 28 75 0 662 663 0 0 1.9677 2.19264406037513 19 29 33 0 12 659 0 664
 V0 16 30 82 0 ?665 0 666 27 0 0 12 18 31 30 0 667 0 668 669 ?12 17 667 0 670 67
1 672 31 673 674 0 675 +18 668 27 0 672 31 676 677 ?12 29 669 32 0 31 677 678 1
 1.9677 2.19264406037513 29 677 29 0 668 679 669 1 1.9677 -3.80735593962487 29 6
78 78 0 680 669 681 0 -.0323 2.19264406037513 18 680 69 0 682 683 0 678 ?12 29 6
81 77 0 683 678 663 0 -.0323 -3.80735593962487 18 683 68 0 684 685 680 681 ?12 2
9 663 76 0 685 681 28 0 1.9677 -3.80735593962487 18 685 67 0 686 662 683 663 ?12
 17 686 0 687 688 689 685 690 691 0 692 +18 662 66 0 693 694 685 28 ?12 17 693 0
 695 675 692 662 696 697 0 698 +18 694 21 0 699 676 662 700 ?12 17 699 0 701 665
 702 694 703 704 0 671 -18 676 24 0 703 668 694 679 ?12 29 700 23 0 694 0 679 1
 -.0323 2.19264406037513 29 679 26 0 676 700 677 1 -.0323 -3.80735593962487 17 7
03 0 670 672 671 676 699 704 0 702 +15 670 4 0 671 705 0 17 672 0 670 667 703 66
8 706 707 0 688 +17 671 0 670 703 667 694 708 709 0 710 +16 704 9 0 ?703 707 709
 711 0 0 12 17 702 0 701 699 684 676 689 666 0 706 -15 701 87 0 684 712 0 17 684
 0 701 702 665 683 682 713 0 689 +17 689 0 687 686 706 683 702 666 0 690 +16 666
 81 0 ?689 30 714 661 0 0 12 17 706 0 687 689 688 676 672 707 0 0 -15 687 85 0 6
86 715 0 17 688 0 687 706 686 668 692 714 0 673 -16 707 13 0 ?672 674 704 716 0
 0 12 16 674 17 0 ?667 717 707 718 0 0 12 30 716 15 0 707 711 718 0 +1 -.0323 -3
.80735593962487 0 1 0 30 711 11 0 704 719 716 0 +1 -.0323 2.19264406037513 0 0 -
1 30 718 19 0 674 716 720 0 +1 1.9677 2.19264406037513 0 0 1 30 720 74 0 721 718
 722 0 +0 -.0323 2.19264406037513 0 -1 0 16 721 62 0 ?723 713 0 720 0 0 12 30 72
2 73 0 713 720 724 0 +0 -.0323 2.19264406037513 0 0 -1 16 713 58 0 ?684 691 721
 722 0 0 12 30 724 72 0 691 722 725 0 +0 -.0323 -3.80735593962487 0 1 0 16 691 5
4 0 ?686 697 713 724 0 0 12 30 725 71 0 697 724 726 0 +0 1.9677 2.19264406037513
 0 0 1 16 697 50 0 ?693 709 691 725 0 0 12 30 726 95 0 717 725 727 0 +1 1.9677 2
.19264406037513 -1 0 0 16 717 79 0 ?698 714 674 726 0 0 12 30 727 96 0 714 726 6
61 0 +1 1.9677 -3.80735593962487 -1 0 0 16 714 80 0 ?692 666 717 727 0 0 12 30 6
61 97 0 666 727 27 0 +1 -.0323 -3.80735593962487 -1 0 0 17 692 0 695 693 673 685
 688 714 0 696 +15 695 83 0 693 728 0 17 673 0 695 692 675 668 667 674 0 0 -17 6
96 0 729 690 730 685 693 697 0 0 -15 729 49 0 730 731 0 17 690 0 729 682 696 683
 686 691 0 0 -17 730 0 729 696 682 662 723 721 0 0 -17 682 0 729 730 690 680 684
 713 0 665 -17 723 0 732 710 698 680 730 721 0 0 +15 732 89 0 723 658 0 17 710 0
 732 708 723 694 665 30 0 0 -17 698 0 732 723 708 662 675 717 0 730 +17 708 0 73
2 698 710 31 671 709 0 0 -17 675 0 695 673 693 31 698 717 0 708 -16 709 5 0 ?671
 704 697 719 0 0 12 30 719 7 0 709 0 711 0 +1 -.0323 2.19264406037513 0 -1 0 17
 665 0 701 684 699 680 710 30 0 723 +14 658 90 733 ?712 0 732 25 26 -0 0 712 0 6
64 81 1 733 170 480 658 734 0 0 735 736 14 712 88 735 ?715 658 701 25 660 -0 0 7
15 658 664 13 664 34 0 0 0 0 0 0 29 658 81 1 735 171 480 712 737 0 733 738 739 1
4 715 86 738 ?728 712 687 25 740 -0 0 728 712 664 50 660 93 0 712 740 26 0 +1 -.
0323 2.19264406037513 0 1 0 0 0 1 50 740 92 0 715 741 660 0 +1 -.0323 -3.8073559
3962487 0 0 1 1 0 0 50 741 91 0 728 742 740 0 +1 1.9677 2.19264406037513 0 -1 0
 0 0 -1 14 728 84 743 ?705 715 695 25 741 -0 0 705 715 664 50 742 70 0 731 744 7
41 0 +0 0 0 -1 0 0 0 0 1 14 731 48 745 ?0 705 729 25 742 +0 0 0 705 664 50 744 3
 0 705 0 742 0 +1 0 0 -1 0 0 0 0 1 14 705 1 746 ?731 728 670 25 744 -0 0 731 728
 664 81 1 746 175 480 705 747 0 745 0 748 81 1 747 154 566 705 0 746 749 750 751
 81 1 745 174 480 731 750 0 743 746 752 82 1 748 1484652767 81 1 750 155 566 731
 0 745 747 0 753 81 1 743 173 480 728 749 0 738 745 754 82 1 752 1490288863 81 1
 749 153 566 728 0 743 755 747 756 81 1 738 172 480 715 755 0 735 743 757 82 1 7
54 1491206367 81 1 755 152 566 715 0 738 737 749 758 82 1 757 1491468511 81 1 73
7 151 566 712 0 735 734 755 759 83 3 758 .792156862745098 .819607843137255 .9333
33333333333 81 1 734 150 566 658 0 733 0 737 760 83 3 759 .792156862745098 .8196
07843137255 .933333333333333 83 3 760 .792156862745098 .819607843137255 .9333333
33333333 83 3 756 .792156862745098 .819607843137255 .933333333333333 83 3 753 .7
92156862745098 .819607843137255 .933333333333333 83 3 751 .792156862745098 .8196
07843137255 .933333333333333 82 1 739 1491730655 82 1 736 1491992799 19 659 100
 0 12 0 29 25 S0 74 20 657 3 0 0 746 750 22 0 0 0 0 0 0 0 0 0 0 0 0 0 0 0 0 0 81
 1 10 177 43 7 0 0 0 0 0 70 11 0 4 T7 0 0 3 20 1 761 761 13 13 99 0 7 0 762 0 0
 763 0 50 14 94 0 762 764 0 0 +.22 -.0323 .3926440603751295 0 0 -1 -1 0 0 30 15
 98 0 18 765 0 0 +.22 -.0323 .3926440603751295 -1 0 0 29 16 75 0 766 767 0 0 .40
77 .3926440603751295 19 17 33 0 7 763 0 768 V0 16 18 82 0 ?769 0 770 15 0 0 7 18
 19 30 0 771 0 772 773 ?7 17 771 0 774 775 776 19 777 778 0 779 +18 772 27 0 776
 19 780 781 ?7 29 773 32 0 19 781 782 .22 .4077 .3926440603751295 29 781 29 0 77
2 783 773 .22 .4077 -.48735593962487 29 782 78 0 784 773 785 0 -.0323 .392644060
3751295 18 784 69 0 786 787 0 782 ?7 29 785 77 0 787 782 767 0 -.0323 -.48735593
962487 18 787 68 0 788 789 784 785 ?7 29 767 76 0 789 785 16 0 .4077 -.487355939
62487 18 789 67 0 790 766 787 767 ?7 17 790 0 791 792 793 789 794 795 0 796 +18
 766 66 0 797 798 789 16 ?7 17 797 0 799 779 796 766 800 801 0 802 +18 798 21 0
 803 780 766 804 ?7 17 803 0 805 769 806 798 807 808 0 775 -18 780 24 0 807 772
 798 783 ?7 29 804 23 0 798 0 783 .22 -.0323 .3926440603751295 29 783 26 0 780 8
04 781 .22 -.0323 -.48735593962487 17 807 0 774 776 775 780 803 808 0 806 +15 77
4 4 0 775 809 0 17 776 0 774 771 807 772 810 811 0 792 +17 775 0 774 807 771 798
 812 813 0 814 +16 808 9 0 ?807 811 813 815 0 0 7 17 806 0 805 803 788 780 793 7
70 0 810 -15 805 87 0 788 816 0 17 788 0 805 806 769 787 786 817 0 793 +17 793 0
 791 790 810 787 806 770 0 794 +16 770 81 0 ?793 18 818 765 0 0 7 17 810 0 791 7
93 792 780 776 811 0 0 -15 791 85 0 790 819 0 17 792 0 791 810 790 772 796 818 0
 777 -16 811 13 0 ?776 778 808 820 0 0 7 16 778 17 0 ?771 821 811 822 0 0 7 30 8
20 15 0 811 815 822 0 +.22 -.0323 -.48735593962487 0 1 0 30 815 11 0 808 823 820
 0 +.22 -.0323 .3926440603751295 0 0 -1 30 822 19 0 778 820 824 0 +.22 .4077 .39
26440603751295 0 0 1 30 824 74 0 825 822 826 0 +0 -.0323 .3926440603751295 0 -1
 0 16 825 62 0 ?827 817 0 824 0 0 7 30 826 73 0 817 824 828 0 +0 -.0323 .3926440
603751295 0 0 -1 16 817 58 0 ?788 795 825 826 0 0 7 30 828 72 0 795 826 829 0 +0
 -.0323 -.48735593962487 0 1 0 16 795 54 0 ?790 801 817 828 0 0 7 30 829 71 0 80
1 828 830 0 +0 .4077 .3926440603751295 0 0 1 16 801 50 0 ?797 813 795 829 0 0 7
 30 830 95 0 821 829 831 0 +.22 .4077 .3926440603751295 -1 0 0 16 821 79 0 ?802
 818 778 830 0 0 7 30 831 96 0 818 830 765 0 +.22 .4077 -.48735593962487 -1 0 0
 16 818 80 0 ?796 770 821 831 0 0 7 30 765 97 0 770 831 15 0 +.22 -.0323 -.48735
593962487 -1 0 0 17 796 0 799 797 777 789 792 818 0 800 +15 799 83 0 797 832 0 1
7 777 0 799 796 779 772 771 778 0 0 -17 800 0 833 794 834 789 797 801 0 0 -15 83
3 49 0 834 835 0 17 794 0 833 786 800 787 790 795 0 0 -17 834 0 833 800 786 766
 827 825 0 0 -17 786 0 833 834 794 784 788 817 0 769 -17 827 0 836 814 802 784 8
34 825 0 0 +15 836 89 0 827 762 0 17 814 0 836 812 827 798 769 18 0 0 -17 802 0
 836 827 812 766 779 821 0 834 +17 812 0 836 802 814 19 775 813 0 0 -17 779 0 79
9 777 797 19 802 821 0 812 -16 813 5 0 ?775 808 801 823 0 0 7 30 823 7 0 813 0 8
15 0 +.22 -.0323 .3926440603751295 0 -1 0 17 769 0 805 788 803 784 814 18 0 827
 +14 762 90 837 ?816 0 836 13 14 -0 0 816 0 768 81 1 837 171 480 762 838 0 0 839
 840 14 816 88 839 ?819 762 805 13 764 -0 0 819 762 768 13 768 34 0 0 0 0 0 0 17
 762 81 1 839 172 480 816 841 0 837 842 843 14 819 86 842 ?832 816 791 13 844 -0
 0 832 816 768 50 764 93 0 816 844 14 0 +.22 -.0323 .3926440603751295 0 1 0 0 0
 1 50 844 92 0 819 845 764 0 +.22 -.0323 -.48735593962487 0 0 1 1 0 0 50 845 91
 0 832 846 844 0 +.22 .4077 .3926440603751295 0 -1 0 0 0 -1 14 832 84 847 ?809 8
19 799 13 845 -0 0 809 819 768 50 846 70 0 835 848 845 0 +0 0 0 -1 0 0 0 0 1 14
 835 48 849 ?0 809 833 13 846 +0 0 0 809 768 50 848 3 0 809 0 846 0 +.22 0 0 -1
 0 0 0 0 1 14 809 1 850 ?835 832 774 13 848 -0 0 835 832 768 81 1 850 176 480 80
9 851 0 849 0 852 81 1 851 155 566 809 0 850 853 854 855 81 1 849 175 480 835 85
4 0 847 850 856 82 1 852 1508180193 81 1 854 156 566 835 0 849 851 0 857 81 1 84
7 174 480 832 853 0 842 849 858 82 1 856 1513816289 81 1 853 154 566 832 0 847 8
59 851 860 81 1 842 173 480 819 859 0 839 847 861 82 1 858 1514733793 81 1 859 1
53 566 819 0 842 841 853 862 82 1 861 1514995937 81 1 841 152 566 816 0 839 838
 859 863 83 3 862 .792156862745098 .819607843137255 .933333333333333 81 1 838 15
1 566 762 0 837 0 841 864 83 3 863 .792156862745098 .819607843137255 .9333333333
33333 83 3 864 .792156862745098 .819607843137255 .933333333333333 83 3 860 .7921
56862745098 .819607843137255 .933333333333333 83 3 857 .792156862745098 .8196078
43137255 .933333333333333 83 3 855 .792156862745098 .819607843137255 .9333333333
33333 82 1 843 1515258081 82 1 840 1515520225 19 763 100 0 7 0 17 13 S0 74 20 76
1 3 0 0 850 854 10 0 0 0 0 0 0 0 0 0 0 0 0 0 0 0 0 0 74 20 6 1 0 0 2 0 0 0 0 0 0
 0 0 0 0 0 0 0 0 0 0 0 0 0 80 2 5 865 866 9000 0 0 0 0 3 5 0 0 0 TFFFFFFFFFFFFF9
 1 79 18 866 MULTI_BODY_ID_20011 0 
