**ABCDEFGHIJKLMNOPQRSTUVWXYZabcdefghijklmnopqrstuvwxyz**************************
**PARASOLID !"#$%&'()*+,-./:;<=>?@[\]^_`{|}~0123456789**************************
**PART1;
MC=AMD64;
MC_MODEL=Intel64 Family 6 Model 78 Stepping 3, GenuineIntel;
MC_ID=unknown;
OS=Windows_NT;
OS_RELEASE=unknown;
FRU=Parasolid Version 33.1, build 255,  1- 8-2022;
APPL=SOLIDWORKS 2022-2022167;
SITE=;
USER=unknown;
FORMAT=text;
GUISE=transmit;
KEY=FILE6.5 ft config.x_t;
DATE=Sat Dec 17 01:12:23 2022;
**PART2;
SCH=SCH_3301255_33103;
USFLD_SIZE=0;
**PART3;
**END_OF_HEADER*****************************************************************
T51 : TRANSMIT FILE created by modeller version 330125523 SCH_3301255_33103_1300
6230 0 10 21 CCCCI7 lattice222 0 CCCI4 mesh1006 0 I8 polyline1008 0 CCCCCCCCCCA1
6 mesh_offset_data206 0 Z1 5 2 3 0 0 0 0 0 0 0 0 1e3 1e-8 0 0 0 1 0 1 4 0 81 255
 2 2 5 5 1 0 0 0 0 0 0 70 11 CI9 list_type0 0 1 uI10 notransmit0 0 1 lCCCDCCDI12
 finger_index0 0 1 dI12 finger_block1012 0 CZ3 0 4 T1 0 0 1 20 1 6 6 11 255 4 3
 0 1 7 8 1 9 0 0 0 12 35 CCCI7 lattice222 0 CCCI4 mesh1006 0 I8 polyline1008 0 C
CCCCCCDI5 owner1040 0 CCCCCCI13 boundary_mesh1006 0 I17 boundary_polyline1008 0
 CCCA16 index_map_offset0 0 1 dA9 index_map82 0 A17 node_id_index_map82 0 A20 sc
hema_embedding_map82 0 A5 child12 0 A14 lowest_node_id0 0 1 dA16 mesh_offset_dat
a206 0 Z7 176 10 11 0 0 0 0 0 0 0 1e3 1e-8 4 12 0 1 0 1 1 13 14 15 16 0 0 17 18
 19 0 0 0 0 0 0 0 100 10 CCCCCCCCCA9 precision229 0 Z8 4 4 0 0 1 0 0 0 1 0 0 0 1
 0 0 0 1 0 ?0 11 9 1 0 1 12 20 1 0 4 0 0 12 12 1460 21 22 0 0 0 0 0 0 0 1e3 1e-8
 9 23 7 1 0 1 1 24 25 26 27 0 0 28 29 30 0 0 0 0 0 0 0 100 20 2 9 0 0 1 0 0 0 1
 0 0 0 1 0 0 0 1 0 ?0 81 1 21 1460 31 12 0 0 0 0 0 70 22 0 4 T12 0 0 3 20 1 32 3
2 13 255 24 267 0 12 0 33 0 0 34 0 51 255 25 1277 0 35 36 0 0 +.069 .07278627724
93507 .2527936265968205 -1 0 0 .01 0 0 1 31 255 26 1137 0 29 37 0 0 -.069 .10392
1212099976 .174962984538827 1 0 0 0 0 -1 .01 29 255 27 1063 0 30 38 0 .069 .0826
889579367665 .254185357606421 19 8 CCCCCCCA5 owner12 0 Z28 89 0 12 34 0 39 V0 16
 255 29 1127 0 ?40 0 41 26 0 0 12 18 255 30 1061 0 42 0 43 27 ?12 17 255 42 0 44
 45 46 30 47 48 0 49 +18 43 1058 0 40 30 50 38 ?12 17 40 0 51 49 52 43 53 29 0 4
5 +18 50 1055 0 54 43 55 56 ?12 29 38 1060 0 43 56 27 .069 .0940185314125603 .17
35712535292265 29 56 1057 0 50 57 38 .069 .0957296916570861 .1692272201753165 29
 57 1054 0 55 58 56 .069 .13189152044289 .1175827764747206 18 55 1052 0 59 50 60
 57 ?12 29 58 1046 0 60 61 57 .069 .1237 0 18 60 1044 0 62 55 63 58 ?12 29 61 10
22 0 63 64 58 -.069 .0957296916570861 .1692272201753165 18 63 1020 0 65 60 66 61
 ?12 29 64 1019 0 66 67 61 -.069 .13189152044289 .1175827764747206 18 66 1017 0
 68 63 69 64 ?12 29 67 1016 0 69 70 64 -.069 .0826889579367665 .254185357606421
 18 69 1014 0 71 66 72 67 ?12 29 70 1013 0 72 73 67 -.069 .0940185314125603 .173
5712535292265 18 72 1011 0 74 69 75 70 ?12 29 73 1010 0 75 76 70 -.069 .1237 0 1
8 75 1008 0 77 72 78 73 ?12 29 76 997 0 78 79 73 .069 .1337 .1118470121112102 18
 78 995 0 80 75 81 76 ?12 29 79 994 0 81 82 76 .069 .1337 .01 18 81 992 0 83 78
 84 79 ?12 29 82 991 0 84 85 79 -.069 .1337 .1118470121112102 18 84 989 0 86 81
 87 82 ?12 29 85 988 0 87 88 82 -.069 .1337 .01 18 87 986 0 89 84 90 85 ?12 29 8
8 975 0 90 91 85 .069 .0368284986066279 .2627936265968205 18 90 973 0 92 87 93 8
8 ?12 29 91 972 0 93 94 88 .069 .0727862772493507 .2627936265968205 18 93 970 0
 95 90 96 91 ?12 29 94 969 0 96 97 91 -.069 .0368284986066279 .2627936265968205
 18 96 967 0 98 93 99 94 ?12 29 97 966 0 99 100 94 -.069 .0727862772493507 .2627
936265968205 18 99 964 0 101 96 102 97 ?12 29 100 958 0 102 103 97 .069 .0291597
9813649285 .2663756025162055 18 102 956 0 104 99 105 100 ?12 29 103 955 0 105 10
6 100 -.069 .02915979813649285 .2663756025162055 18 105 953 0 107 102 108 103 ?1
2 29 106 872 0 108 109 103 -.0486 0 -.0280559396248703 18 108 870 0 110 105 111
 106 ?12 29 109 869 0 111 112 106 -.0486 0 -.0926559396248703 18 111 867 0 113 1
08 114 109 ?12 29 112 863 0 114 115 109 -.069 0 -.02805593962487025 18 114 861 0
 116 111 117 112 ?12 29 115 800 0 117 118 112 -.0486 0 .2249440603751295 18 117
 798 0 119 114 120 115 ?12 29 118 797 0 120 121 115 -.0486 0 .1603440603751295 1
8 120 795 0 122 117 123 118 ?12 29 121 791 0 123 124 118 -.069 0 .22494406037512
95 18 123 789 0 125 120 126 121 ?12 29 124 706 0 126 127 121 .069 19842284472708
8e-33 -.0926559396248703 18 126 704 0 128 123 129 124 ?12 29 127 634 0 129 130 1
24 .069 -343377064908479e-33 .1603440603751295 18 129 632 0 131 126 132 127 ?12
 29 130 506 0 132 133 127 -.054 .02 -.1501 18 132 504 0 134 129 135 130 ?12 29 1
33 497 0 135 136 130 -.054 .0819 0 18 135 495 0 137 132 138 133 ?12 29 136 494 0
 138 139 133 -.054 .02 0 18 138 492 0 140 135 141 136 ?12 29 139 491 0 141 142 1
36 -.054 .0819 -.1501 18 141 489 0 143 138 144 139 ?12 29 142 488 0 144 145 139
 -.069 .0819 0 18 144 486 0 146 141 147 142 ?12 29 145 203 0 148 149 142 -.069 .
0819 -.1651 18 148 178 0 150 151 152 145 ?12 29 149 204 0 152 153 145 -.069 0 -.
1651 18 152 179 0 154 148 155 149 ?12 29 153 206 0 155 156 149 -.069 -5627729768
49645e-33 .2627936265968205 18 155 181 0 157 152 158 153 ?12 29 156 64 0 147 159
 153 .069 .0819 -.1651 18 147 62 0 160 144 161 156 ?12 29 159 61 0 161 162 156 .
069 0 -.1651 18 161 59 0 163 147 151 159 ?12 29 162 55 0 151 164 159 .069 -56277
2976849645e-33 .2627936265968205 18 151 53 0 165 161 148 162 ?12 29 164 456 0 15
8 166 162 .054 .0819 -.1501 18 158 408 0 167 155 168 164 ?12 29 166 457 0 168 16
9 164 .069 .0819 -4478294230959615e-33 18 168 410 0 170 158 171 166 ?12 29 169 4
59 0 171 172 166 .054 .0819 1086275333242512e-32 18 171 409 0 173 168 174 169 ?1
2 29 172 461 0 174 175 169 .054 .02 461067862133551e-32 18 174 404 0 176 171 177
 172 ?12 29 175 462 0 177 178 172 .054 .02 -.1501 18 177 405 0 179 174 180 175 ?
12 29 178 695 0 181 182 175 .069 0 .2249440603751295 18 181 668 0 183 184 185 17
8 ?12 29 182 697 0 180 186 178 .0486 0 .2249440603751295 18 180 665 0 187 177 18
4 182 ?12 29 186 698 0 184 188 182 .0486 -562772976849645e-33 .1603440603751295
 18 184 667 0 189 180 181 186 ?12 29 188 767 0 190 191 186 .069 -562772976849645
e-33 -.0280559396248703 18 190 740 0 192 193 194 188 ?12 29 191 769 0 185 195 18
8 .0486 -562772976849645e-33 -.0280559396248703 18 185 737 0 196 181 193 191 ?12
 29 195 770 0 193 197 191 .0486 -562772976849645e-33 -.0926559396248703 18 193 7
39 0 198 185 190 195 ?12 29 197 855 0 194 199 195 -.069 -562772976849645e-33 .16
03440603751295 18 194 828 0 200 190 201 197 ?12 29 199 927 0 201 0 197 -.069 -56
2772976849645e-33 -.0926559396248703 18 201 900 0 202 194 0 199 ?12 17 202 0 203
 204 205 201 154 206 0 207 -15 255 203 603 0 208 209 0 17 204 0 203 200 202 114
 210 211 0 0 -17 205 0 203 202 212 152 150 213 0 0 -17 154 0 214 215 207 152 202
 206 0 216 +16 206 865 0 ?154 217 218 219 217 220 12 17 207 0 214 154 113 201 22
1 222 0 210 +15 214 877 0 207 33 0 17 113 0 214 207 110 111 223 224 0 225 -17 22
1 0 226 227 210 111 207 222 0 0 -16 222 890 0 ?207 228 229 230 0 0 12 17 210 0 2
26 221 231 201 204 211 0 0 +15 226 904 0 210 232 0 17 231 0 226 210 227 114 110
 229 0 204 +16 211 883 0 ?210 233 0 234 0 0 12 16 233 891 0 ?225 224 211 235 0 0
 12 31 234 924 0 211 236 230 0 +-.069 -109941004398851e-33 -.0603559396248703 1
 0 0 0 0 -1 .0323 30 255 236 925 0 224 235 234 0 +-.0486 -562772976849645e-33 -.
0280559396248703 0 0 1 30 230 922 0 222 234 237 0 +-.0486 -562772976849645e-33 -
.0926559396248703 -1 0 0 30 237 921 0 229 230 238 0 +-.0486 -562772976849645e-33
 -.0280559396248703 -1 0 0 16 229 886 0 ?231 222 224 237 0 0 12 31 238 854 0 239
 237 240 0 +-.0486 0 .1926440603751295 1 0 0 0 0 -1 .0323 16 239 819 0 ?241 242
 228 238 0 0 12 30 240 853 0 242 238 243 0 +-.0486 0 .2249440603751295 0 8711655
9883846e-31 1 16 242 822 0 ?244 245 239 240 0 0 12 31 243 852 0 228 240 246 0 +-
.069 0 .1926440603751295 1 0 0 0 0 -1 .0323 16 228 811 0 ?247 239 222 243 0 0 12
 30 246 850 0 248 243 249 0 +-.0486 -562772976849645e-33 .1603440603751295 -1 0
 0 16 248 818 0 ?250 251 245 246 0 0 12 30 249 849 0 245 246 252 0 +-.0486 0 .22
49440603751295 -1 0 0 16 245 814 0 ?253 248 242 249 0 0 12 31 252 766 0 254 249
 255 0 +.0486 -109941004398851e-33 -.0603559396248703 1 0 0 0 0 -1 .0323 16 254
 723 0 ?198 256 251 252 0 0 12 30 255 765 0 256 252 257 0 +.0486 -56277297684964
5e-33 -.0280559396248703 0 0 1 16 256 727 0 ?258 259 254 255 0 0 12 31 257 764 0
 251 255 260 0 +.069 -109941004398851e-33 -.0603559396248703 1 0 0 0 0 -1 .0323
 16 251 731 0 ?128 254 248 257 0 0 12 30 260 762 0 261 257 262 0 +.0486 -5627729
76849645e-33 -.0280559396248703 1 0 0 16 261 730 0 ?263 264 259 260 0 0 12 30 26
2 761 0 259 260 265 0 +.0486 -562772976849645e-33 -.0926559396248703 1 0 0 16 25
9 726 0 ?266 261 256 262 0 0 12 31 265 694 0 267 262 268 0 +.0486 0 .19264406037
51295 1 0 0 0 0 -1 .0323 16 267 651 0 ?189 269 264 265 0 0 12 30 268 693 0 269 2
65 270 0 +.0486 0 .2249440603751295 0 87116559883846e-31 1 16 269 655 0 ?271 272
 267 268 0 0 12 31 270 692 0 264 268 273 0 +.069 0 .1926440603751295 1 0 0 0 0 -
1 .0323 16 264 659 0 ?131 267 261 270 0 0 12 30 273 690 0 274 270 275 0 +.0486 0
 .2249440603751295 1 0 0 16 274 658 0 ?276 277 272 273 0 0 12 30 275 689 0 272 2
73 278 0 +.0486 -562772976849645e-33 .1603440603751295 1 0 0 16 272 654 0 ?279 2
74 269 275 0 0 12 30 278 589 0 280 275 281 0 +-.054 .0819 -1134633105311102e-31
 0 925185853854298e-30 -1 16 280 536 0 ?282 283 284 278 0 0 12 30 281 588 0 283
 278 285 0 +-.069 .0819 -4478294230959615e-33 1 -946221345929967e-45 10227365042
2565e-29 16 283 535 0 ?286 287 280 281 0 0 12 30 285 584 0 277 281 288 0 +-.054
 .02 461067862133551e-32 0 -924569474204827e-31 1 16 277 528 0 ?140 289 274 285
 0 0 12 30 288 581 0 289 285 290 0 +-.054 .232747638364013 -.1501 0 -1 -10100282
24731764e-31 16 289 521 0 ?134 284 277 288 0 0 12 30 290 580 0 284 288 291 0 +-.
054 .232747638364013 2609879057060345e-32 0 -1 -1010028224731764e-31 16 284 520
 0 ?292 280 289 290 0 0 12 30 291 455 0 293 290 294 0 +.054 .0819 -1134633105311
102e-31 0 925185853854298e-30 -1 16 293 389 0 ?167 218 295 291 0 0 12 30 294 450
 0 287 291 296 0 +.054 .02 461067862133551e-32 0 -924569474204827e-31 1 16 287 3
91 0 ?176 297 283 294 0 0 12 30 296 447 0 297 294 298 0 +.054 .232747638364013 2
609879057060345e-32 0 -1 -1010028224731764e-31 16 297 385 0 ?299 300 287 296 0 0
 12 30 298 446 0 300 296 301 0 +.054 .232747638364013 -.1501 0 -1 -1010028224731
764e-31 16 300 390 0 ?179 295 297 298 0 0 12 30 301 444 0 295 298 302 0 +.069 .0
819 -4478294230959615e-33 -1 -946221345929967e-45 102273650422565e-29 16 295 384
 0 ?303 293 300 301 0 0 12 31 302 7 0 304 301 305 0 +.069 .0157395723137565 .255
1440603751295 1 0 0 0 0 -1 .0175 16 304 957 0 ?165 306 307 302 0 0 12 30 305 11
 0 308 302 309 0 +.069 -562772976849645e-33 .2627936265968205 0 214150161911291e
-32 -1 16 308 9 0 ?310 311 312 305 306 312 12 30 309 19 0 311 305 313 0 +.069 0
 -.1651 0 1 0 16 311 17 0 ?160 314 308 309 0 0 12 30 313 23 0 314 309 315 0 +.06
9 .0819 -.1651 0 -925185853854298e-30 1 16 314 21 0 ?170 316 311 313 0 0 12 30 3
15 35 0 316 313 317 0 +.069 .02 0 0 1 0 16 316 353 0 ?318 319 314 315 0 0 12 30
 317 39 0 319 315 320 0 +.069 .1337 0 0 0 1 16 319 993 0 ?321 322 316 317 0 0 12
 30 320 43 0 322 317 323 0 +.069 .1337 .115 0 -.573576436351042 .819152044288994
 16 322 1053 0 ?52 324 319 320 0 0 12 30 323 47 0 324 320 325 0 +.069 .094352656
4663185 .171193830238225 0 -.1391731009600588 .990268068741571 16 324 1059 0 ?49
 326 322 323 0 0 12 30 325 51 0 326 323 327 0 +.069 .0814791446275131 .262793626
5968205 0 -1 -2220446049250315e-30 16 326 971 0 ?328 329 324 325 0 0 12 31 327 1
94 0 218 325 219 0 +-.069 .0157395723137565 .2551440603751295 1 0 0 0 0 -1 .0175
 16 218 954 0 ?157 206 293 327 0 0 12 30 219 192 0 220 327 330 0 +-.069 0 0 0 0
 -1 16 220 158 0 ?125 213 217 219 206 217 12 30 330 191 0 213 219 331 0 +-.069 0
 -.1651 0 1 0 16 213 154 0 ?150 332 220 330 0 0 12 30 331 190 0 332 330 333 0 +-
.069 .0819 -.1651 0 -925185853854298e-30 1 16 332 150 0 ?146 334 213 331 0 0 12
 30 333 187 0 334 331 335 0 +-.069 .02 0 0 1 0 16 334 487 0 ?336 337 332 333 0 0
 12 30 335 186 0 337 333 338 0 +-.069 .1337 0 0 0 1 16 337 987 0 ?339 340 334 33
5 0 0 12 30 338 185 0 340 335 341 0 +-.069 .1337 .115 0 -.573576436351042 .81915
2044288994 16 340 1018 0 ?342 343 337 338 0 0 12 30 341 184 0 343 338 344 0 +-.0
69 .0943526564663185 .171193830238225 0 -.1391731009600588 .990268068741571 16 3
43 1012 0 ?46 307 340 341 0 0 12 30 344 183 0 307 341 345 0 +-.069 .081479144627
5131 .2627936265968205 0 -1 -2220446049250315e-30 16 307 965 0 ?346 304 343 344
 0 0 12 30 345 260 0 329 344 347 0 +.069 .02 0 -1 0 0 16 329 356 0 ?348 349 326
 345 0 0 12 30 347 261 0 349 345 350 0 +.069 .02 -.1501 -1 0 0 16 349 368 0 ?351
 352 329 347 0 0 12 30 350 262 0 352 347 353 0 +.069 .0819 -.1501 -1 0 0 16 352
 376 0 ?143 354 349 350 0 0 12 30 353 263 0 354 350 355 0 +.069 .0819 -.1651 -1
 0 0 16 354 215 0 ?356 357 352 353 0 0 12 30 355 264 0 357 353 358 0 +.069 0 -.1
651 -1 0 0 16 357 216 0 ?216 359 354 355 0 0 12 30 358 266 0 359 355 360 0 +.069
 -562772976849645e-33 .2627936265968205 -1 0 0 16 359 218 0 ?361 362 357 358 0 0
 12 30 360 961 0 362 358 363 0 +.069 .02915979813649285 .2663756025162055 -1 0 0
 16 362 959 0 ?364 365 359 360 0 0 12 30 363 978 0 365 360 366 0 +.069 .07278627
72493507 .2627936265968205 -1 0 0 16 365 976 0 ?367 368 362 363 0 0 12 30 366 98
3 0 368 363 369 0 +.069 .0368284986066279 .2627936265968205 1 0 0 16 368 981 0 ?
92 370 365 366 0 0 12 30 369 1000 0 370 366 371 0 -.069 .1337 .1118470121112102
 -1 0 0 16 370 998 0 ?80 372 368 369 0 0 12 30 371 1005 0 372 369 373 0 +.069 .1
337 .01 -1 0 0 16 372 1003 0 ?374 375 370 371 0 0 12 31 373 1025 0 375 371 376 0
 --.069 .0727862772493507 .2527936265968205 1 0 0 0 0 -1 .01 16 375 1023 0 ?71 3
77 372 373 0 0 12 31 376 1032 0 377 373 378 0 --.069 .1237 .1118470121112102 1 0
 0 0 0 -1 .01 16 377 1030 0 ?86 379 375 376 0 0 12 31 378 1039 0 379 376 380 0 -
-.069 .1237 .01 1 0 0 0 0 -1 .01 16 379 1037 0 ?77 381 377 378 0 0 12 30 380 104
9 0 381 378 382 0 -.069 .1237 0 -1 0 0 16 381 1047 0 ?62 383 379 380 0 0 12 31 3
82 1066 0 383 380 384 0 +.069 .0727862772493507 .2527936265968205 1 0 0 0 0 -1 .
01 16 383 1064 0 ?95 385 381 382 0 0 12 31 384 1074 0 385 382 386 0 +.069 .1237
 .1118470121112102 1 0 0 0 0 -1 .01 16 385 1072 0 ?59 387 383 384 0 0 12 31 386
 1082 0 387 384 388 0 +.069 .1237 .01 1 0 0 0 0 -1 .01 16 387 1080 0 ?83 389 385
 386 0 0 12 30 388 1090 0 389 386 390 0 -.069 .0957296916570861 .169227220175316
5 -1 0 0 16 389 1088 0 ?54 391 387 388 0 0 12 30 390 1095 0 391 388 392 0 +.069
 .13189152044289 .1175827764747206 -1 0 0 16 391 1093 0 ?393 48 389 390 0 0 12 3
0 392 1100 0 48 390 394 0 -.069 .0826889579367665 .254185357606421 -1 0 0 16 48
 1098 0 ?42 395 391 392 0 0 12 30 394 1105 0 395 392 396 0 +-.069 .0940185314125
603 .1735712535292265 -1 0 0 16 395 1103 0 ?397 398 48 394 0 0 12 31 396 1134 0
 398 394 399 0 +-.069 .0368284986066279 .2727936265968205 1 0 0 0 0 -1 .01 16 39
8 1108 0 ?98 400 395 396 0 0 12 31 399 1135 0 400 396 37 0 -.069 .03682849860662
79 .2727936265968205 1 0 0 0 0 -1 .01 16 400 1114 0 ?104 41 398 399 0 0 12 31 37
 1136 0 41 399 26 0 +-.069 .103921212099976 .174962984538827 1 0 0 0 0 -1 .01 16
 41 1121 0 ?65 29 400 37 0 0 12 17 65 0 203 401 402 63 74 41 0 342 +17 401 0 203
 86 65 66 342 340 0 0 -17 402 0 203 65 71 72 46 343 0 0 -17 74 0 403 404 405 72
 65 41 0 397 -17 342 0 406 54 393 63 401 340 0 405 +15 406 223 0 407 408 0 17 54
 0 406 407 342 50 405 389 0 52 +17 393 0 406 342 407 66 409 391 0 401 +17 405 0
 403 74 53 63 54 389 0 0 -15 403 1245 0 53 410 0 17 53 0 403 405 404 50 40 29 0
 0 -17 404 0 403 53 74 43 397 395 0 0 -17 397 0 44 46 45 72 404 395 0 402 +15 44
 221 0 45 411 0 17 46 0 44 42 397 69 402 343 0 47 +17 45 0 44 397 42 43 49 324 0
 404 -17 49 0 51 95 40 30 45 324 0 412 +15 51 468 0 318 413 0 17 95 0 51 328 49
 93 412 383 0 414 +17 412 0 415 47 416 30 95 383 0 0 -15 415 1266 0 412 35 0 17
 47 0 415 101 412 69 42 48 0 0 -17 416 0 415 412 101 93 367 365 0 0 -17 101 0 41
5 416 47 99 71 375 0 367 -17 367 0 417 346 414 99 416 365 0 418 +15 417 219 0 34
6 419 0 17 346 0 417 92 367 96 418 307 0 420 +17 414 0 417 367 92 93 328 326 0 4
16 -17 418 0 203 71 98 99 346 307 0 0 -17 71 0 203 402 418 69 101 375 0 46 +17 9
8 0 203 418 421 96 107 398 0 346 +17 421 0 203 98 422 105 157 218 0 0 -17 107 0
 423 424 420 105 98 398 0 364 -15 423 1182 0 425 426 0 17 424 0 423 425 107 102
 364 362 0 0 -17 420 0 423 107 425 96 92 368 0 0 -17 364 0 427 157 428 105 424 3
62 0 421 +15 427 241 0 428 429 0 17 157 0 427 430 364 155 421 218 0 422 +17 428
 0 427 364 430 102 165 304 0 424 -17 430 0 427 428 157 151 361 359 0 0 -17 165 0
 51 310 104 151 428 304 0 431 +17 310 0 51 131 165 181 431 308 0 0 +17 104 0 51
 165 328 102 425 400 0 428 +17 431 0 214 361 276 151 310 308 0 430 -17 361 0 214
 125 431 155 430 359 0 0 +17 276 0 214 431 271 181 187 274 0 310 +17 271 0 214 2
76 432 180 433 269 0 0 +17 187 0 434 189 183 180 276 274 0 435 -15 434 672 0 183
 436 0 17 189 0 434 279 187 184 435 267 0 433 +17 183 0 434 187 279 181 131 264
 0 276 -17 435 0 437 433 433 180 189 267 0 271 -15 437 679 0 435 438 0 17 433 0
 437 435 435 184 271 269 0 432 -17 432 0 214 271 439 184 279 272 0 0 -17 439 0 2
14 432 263 129 440 312 0 0 -17 279 0 434 183 189 129 432 272 0 439 +17 263 0 214
 439 258 190 196 261 0 440 +17 440 0 51 128 131 190 439 312 0 0 +16 312 633 0 ?4
40 308 306 305 308 306 12 16 306 705 0 ?163 312 304 305 312 308 12 17 163 0 51 1
60 128 161 441 306 0 215 +17 160 0 51 170 163 147 442 311 0 443 +17 128 0 51 163
 440 126 192 251 0 266 +17 441 0 214 444 215 126 163 306 0 0 -17 215 0 214 441 1
54 161 216 357 0 442 -17 216 0 445 150 442 152 215 357 0 205 +17 442 0 445 216 4
43 161 160 311 0 0 -15 445 235 0 150 446 0 17 443 0 445 442 150 147 356 354 0 44
7 -17 150 0 445 443 216 148 205 213 0 356 +17 356 0 448 146 447 148 443 354 0 21
2 +17 447 0 448 356 449 147 170 314 0 0 -15 448 233 0 146 450 0 17 449 0 448 447
 173 168 303 295 0 451 -17 170 0 51 318 160 168 447 314 0 449 +17 318 0 51 83 17
0 60 451 316 0 452 +17 83 0 51 321 318 81 452 387 0 453 +17 451 0 454 303 62 168
 318 316 0 0 -17 452 0 455 456 457 60 83 387 0 0 -15 455 1203 0 452 458 0 17 456
 0 455 89 452 75 62 381 0 0 -17 457 0 455 452 89 81 374 372 0 0 -17 89 0 455 457
 456 87 77 379 0 374 -17 374 0 459 339 453 87 457 372 0 208 +15 459 225 0 453 46
0 0 17 339 0 459 80 374 84 208 337 0 461 +17 453 0 459 374 80 81 321 319 0 457 -
17 208 0 203 77 86 87 339 337 0 0 -17 77 0 203 462 208 75 89 379 0 336 +17 86 0
 203 208 401 84 68 377 0 339 +17 68 0 463 409 461 66 86 377 0 393 -15 463 1224 0
 464 465 0 17 409 0 463 464 68 55 393 391 0 0 -17 461 0 463 68 464 84 80 370 0 0
 -17 464 0 463 461 409 78 59 385 0 0 -17 80 0 459 453 339 78 461 370 0 321 +17 3
21 0 51 59 83 78 453 319 0 464 +17 59 0 51 52 321 55 464 385 0 407 +17 52 0 51 4
0 59 50 407 322 0 53 +17 407 0 406 393 54 55 52 322 0 409 -14 255 465 1223 466 ?
410 458 463 24 467 +0 0 410 458 39 81 1 466 1432 468 465 469 0 0 470 471 14 410
 1244 470 ?35 465 403 24 36 -0 0 35 465 39 14 458 1202 472 ?465 426 455 24 473 +
0 0 465 426 39 51 467 1235 0 465 473 36 0 +.069 .1237 .1118470121112102 -1 0 0 .
01 0 0 1 13 39 90 0 0 0 0 0 0 28 33 14 33 879 474 ?475 0 214 24 476 -0 0 475 0 3
9 81 1 474 1435 468 33 477 0 472 478 479 14 475 381 478 ?480 33 481 24 482 -0 0
 480 33 39 50 255 476 252 0 33 483 484 0 +.069 0 0 0 1 0 0 0 1 50 483 251 0 446
 485 476 0 +.069 0 -.1651 0 0 1 1 0 0 51 484 254 0 429 476 486 0 -.069 .01573957
23137565 .2551440603751295 -1 0 0 .0175 0 0 1 14 429 242 487 ?446 488 427 24 484
 -0 0 446 488 39 51 486 1193 0 426 484 473 0 +.069 .0368284986066279 .2727936265
968205 -1 0 0 .01 0 0 1 14 426 1181 489 ?458 490 423 24 486 -0 0 458 490 39 51 4
73 1214 0 458 486 467 0 +.069 .1237 .01 -1 0 0 .01 0 0 1 81 1 489 1438 468 426 4
91 0 487 492 493 14 490 909 492 ?426 232 494 24 495 -0 0 426 232 39 81 1 492 143
9 468 490 496 0 489 497 498 14 232 901 497 ?490 499 226 24 500 -0 0 490 499 39 1
5 494 911 0 225 490 0 50 495 920 0 490 0 500 0 +-.0486 -109941004398851e-33 -.06
03559396248703 -1 0 0 0 0 -1 51 500 917 0 232 495 501 0 --.0486 -109941004398851
e-33 -.0603559396248703 -1 0 0 .0323 0 0 1 50 501 848 0 499 500 502 0 +-.0486 0
 .1926440603751295 -1 0 0 0 0 -1 14 499 837 503 ?232 504 505 24 501 -0 0 232 504
 39 51 502 845 0 504 501 506 0 --.0486 0 .1926440603751295 -1 0 0 .0323 0 0 1 14
 504 829 507 ?499 508 509 24 502 -0 0 499 508 39 50 506 760 0 508 502 510 0 +.04
86 -109941004398851e-33 -.0603559396248703 1 0 0 0 0 -1 14 508 749 511 ?504 512
 513 24 506 -0 0 504 512 39 51 510 757 0 512 506 514 0 +.0486 -109941004398851e-
33 -.0603559396248703 1 0 0 .0323 0 0 -1 14 512 741 515 ?508 438 516 24 510 +0 0
 508 438 39 50 514 688 0 438 510 517 0 +.0486 0 .1926440603751295 1 0 0 0 0 -1 1
4 438 677 518 ?512 436 437 24 514 -0 0 512 436 39 51 517 685 0 436 514 519 0 +.0
486 0 .1926440603751295 1 0 0 .0323 0 0 -1 14 436 669 520 ?438 521 434 24 517 +0
 0 438 521 39 50 519 574 0 521 517 522 0 +-.054 .232747638364013 260987905706034
5e-32 1 0 0 0 0 -1 14 521 554 523 ?436 524 525 24 519 +0 0 436 524 39 50 522 440
 0 524 519 526 0 +.054 .232747638364013 2609879057060345e-32 1 0 0 0 0 -1 14 524
 419 527 ?521 209 528 24 522 -0 0 521 209 39 50 526 3 0 413 522 529 0 +.069 .015
7395723137565 .2551440603751295 1 0 0 0 0 -1 14 413 1 530 ?209 419 51 24 526 +0
 0 209 419 39 50 529 182 0 209 526 531 0 +-.069 .0157395723137565 .2551440603751
295 1 0 0 0 0 -1 14 209 120 532 ?524 413 203 24 529 -0 0 524 413 39 50 531 243 0
 419 529 533 0 +.069 .0814791446275131 .2627936265968205 0 2220446049250315e-30
 -1 0 1 2220446049250315e-30 14 419 220 534 ?413 411 417 24 531 -0 0 413 411 39
 50 533 244 0 411 531 535 0 +.069 .0943526564663185 .171193830238225 0 -.9902680
68741571 -.1391731009600588 0 .1391731009600588 -.990268068741571 14 411 222 536
 ?419 408 44 24 533 -0 0 419 408 39 50 535 245 0 408 533 537 0 +.069 .1337 .115
 0 -.819152044288995 -.573576436351042 0 .573576436351042 -.819152044288995 14 4
08 224 538 ?411 460 406 24 535 -0 0 411 460 39 50 537 246 0 460 535 539 0 +.069
 .1337 0 0 -1 0 0 0 -1 14 460 226 540 ?408 450 459 24 537 -0 0 408 450 39 50 539
 247 0 488 537 541 0 +.069 .02 0 0 0 1 1 0 0 14 488 365 542 ?429 480 454 24 539
 -0 0 429 480 39 50 541 248 0 480 539 482 0 +.069 .02 -.1501 0 -1 -1386854211307
24e-30 0 138685421130724e-30 -1 14 480 373 543 ?488 475 544 24 541 -0 0 488 475
 39 50 482 249 0 475 541 485 0 +.069 .0819 -.1501 0 0 -1 -1 0 0 50 485 250 0 450
 482 483 0 +.069 .0819 -.1651 0 -1 -925185853854298e-30 0 925185853854298e-30 -1
 14 450 234 545 ?460 446 448 24 485 -0 0 460 446 39 81 1 545 1457 468 450 546 0
 543 547 548 14 446 236 547 ?450 429 445 24 483 -0 0 450 429 39 81 1 547 1458 46
8 446 549 0 545 550 551 80 255 1 468 552 553 9000 1 1 1 1 1 1 1 1 0 FFFFTFTFFFFF
FF1 81 1 549 1343 554 446 0 547 555 546 556 81 1 550 1459 468 35 557 0 547 0 558
 82 255 1 551 1945763983 14 35 1265 550 ?0 410 415 24 25 +0 0 0 410 39 81 1 557
 1365 554 35 0 550 559 0 560 82 1 558 -992280414 80 1 554 0 561 8001 0 0 0 0 3 5
 0 0 0 FFFFTFTFFFFFFF2 81 1 559 1364 554 410 0 470 469 557 562 83 255 3 560 .792
156862745098 .819607843137255 .933333333333333 81 1 470 1433 468 410 559 0 466 4
72 563 81 1 469 1363 554 465 0 466 564 559 565 83 3 562 .792156862745098 .819607
843137255 .933333333333333 81 1 564 1362 554 458 0 472 491 469 566 83 3 565 .792
156862745098 .819607843137255 .933333333333333 81 1 472 1434 468 458 564 0 470 4
74 567 81 1 491 1361 554 426 0 489 496 564 568 83 3 566 .792156862745098 .819607
843137255 .933333333333333 81 1 496 1360 554 490 0 492 569 491 570 83 3 568 .792
156862745098 .819607843137255 .933333333333333 81 1 569 1359 554 232 0 497 571 4
96 572 83 3 570 .792156862745098 .819607843137255 .933333333333333 81 1 497 1440
 468 232 569 0 492 503 573 81 1 571 1358 554 499 0 503 574 569 575 83 3 572 .792
156862745098 .819607843137255 .933333333333333 81 1 503 1441 468 499 571 0 497 5
07 576 81 1 574 1357 554 504 0 507 577 571 578 83 3 575 .792156862745098 .819607
843137255 .933333333333333 81 1 507 1442 468 504 574 0 503 511 579 81 1 577 1356
 554 508 0 511 580 574 581 83 3 578 .792156862745098 .819607843137255 .933333333
333333 81 1 511 1443 468 508 577 0 507 515 582 81 1 580 1355 554 512 0 515 583 5
77 584 83 3 581 .792156862745098 .819607843137255 .933333333333333 81 1 515 1444
 468 512 580 0 511 518 585 81 1 583 1354 554 438 0 518 586 580 587 83 3 584 .792
156862745098 .819607843137255 .933333333333333 81 1 518 1445 468 438 583 0 515 5
20 588 81 1 586 1353 554 436 0 520 589 583 590 83 3 587 .792156862745098 .819607
843137255 .933333333333333 81 1 520 1446 468 436 586 0 518 523 591 81 1 589 1352
 554 521 0 523 592 586 593 83 3 590 .792156862745098 .819607843137255 .933333333
333333 81 1 523 1447 468 521 589 0 520 527 594 81 1 592 1351 554 524 0 527 595 5
89 596 83 3 593 .792156862745098 .819607843137255 .933333333333333 81 1 527 1448
 468 524 592 0 523 530 597 81 1 595 1350 554 209 0 532 598 592 599 83 3 596 .792
156862745098 .819607843137255 .933333333333333 81 1 532 1450 468 209 595 0 530 5
34 600 81 1 598 1349 554 413 0 530 601 595 602 83 3 599 .792156862745098 .819607
843137255 .933333333333333 81 1 530 1449 468 413 598 0 527 532 603 81 1 601 1348
 554 419 0 534 604 598 605 83 3 602 .792156862745098 .819607843137255 .933333333
333333 81 1 534 1451 468 419 601 0 532 536 606 81 1 604 1347 554 411 0 536 607 6
01 608 83 3 605 .792156862745098 .819607843137255 .933333333333333 81 1 536 1452
 468 411 604 0 534 538 609 81 1 607 1346 554 408 0 538 610 604 611 83 3 608 .792
156862745098 .819607843137255 .933333333333333 81 1 538 1453 468 408 607 0 536 5
40 612 81 1 610 1345 554 460 0 540 546 607 613 83 3 611 .792156862745098 .819607
843137255 .933333333333333 81 1 540 1454 468 460 610 0 538 542 614 81 1 546 1344
 554 450 0 545 549 610 615 83 3 613 .792156862745098 .819607843137255 .933333333
333333 83 3 615 .792156862745098 .819607843137255 .933333333333333 81 1 542 1455
 468 488 616 0 540 543 617 82 1 614 -1391394654 81 1 616 1341 554 488 0 542 618
 555 619 81 1 543 1456 468 480 618 0 542 545 620 82 1 617 -1391263582 81 1 618 1
340 554 480 0 543 621 616 622 82 1 620 2002518162 81 1 621 1339 554 475 0 478 47
7 618 623 83 3 622 .792156862745098 .819607843137255 .933333333333333 81 1 478 1
436 468 475 621 0 474 487 624 81 1 477 1338 554 33 0 474 0 621 625 83 3 623 .792
156862745098 .819607843137255 .933333333333333 83 3 625 .792156862745098 .819607
843137255 .933333333333333 81 1 487 1437 468 429 555 0 478 489 626 82 1 624 2003
304594 81 1 555 1342 554 429 0 487 616 549 627 82 1 626 -1393885022 83 3 627 .79
2156862745098 .819607843137255 .933333333333333 83 3 619 .792156862745098 .81960
7843137255 .933333333333333 82 1 612 -1391525726 82 1 609 -1391656798 82 1 606 -
1391787870 82 1 603 -1392050014 82 1 600 -1391918942 82 1 597 1976959121 82 1 59
4 2024210578 82 1 591 2073952404 82 1 588 2070020244 82 1 585 2080702612 82 1 58
2 2076770452 82 1 579 2105344149 82 1 576 2101280917 82 1 573 2112356501 82 1 56
7 -998178654 82 1 563 -994246494 79 255 15 561 SDL/TYSA_COLOUR83 3 556 .79215686
2745098 .819607843137255 .933333333333333 79 14 553 SWEntUnchanged82 1 548 19455
01842 15 544 371 0 351 480 0 17 351 0 544 140 628 132 629 349 0 630 +17 140 0 54
4 631 351 138 630 277 0 348 +17 628 0 544 351 631 177 176 287 0 629 -17 629 0 48
1 632 134 177 351 349 0 0 -17 630 0 525 633 292 132 140 277 0 0 -15 525 557 0 63
4 521 0 17 633 0 525 634 630 141 134 289 0 0 -17 292 0 525 630 634 138 137 284 0
 0 +17 634 0 525 292 633 135 282 280 0 0 -17 137 0 454 635 348 135 292 284 0 286
 -15 454 363 0 336 488 0 17 635 0 454 336 137 144 286 283 0 462 -17 348 0 454 13
7 299 138 631 329 0 292 +17 286 0 448 282 146 135 635 283 0 634 +17 282 0 448 63
6 286 141 634 280 0 633 +17 146 0 448 286 356 144 212 332 0 635 +17 212 0 203 20
5 462 148 146 332 0 0 -17 462 0 203 212 77 144 336 334 0 0 -17 336 0 454 62 635
 75 462 334 0 456 +17 62 0 454 451 336 60 456 381 0 318 +17 636 0 448 173 282 15
8 143 352 0 0 -17 173 0 448 449 636 171 167 293 0 637 -17 143 0 481 134 632 141
 636 352 0 282 +15 481 379 0 143 475 0 17 134 0 481 629 143 132 633 289 0 351 +1
7 632 0 481 143 629 158 179 300 0 636 -17 179 0 528 176 167 177 632 300 0 628 +1
5 528 422 0 637 524 0 17 176 0 528 637 179 174 628 287 0 299 +17 167 0 528 179 6
37 158 173 293 0 632 +17 637 0 528 167 176 171 299 297 0 303 -17 299 0 454 348 3
03 174 637 297 0 631 +17 303 0 454 299 451 171 449 295 0 0 +17 631 0 544 628 140
 174 348 329 0 0 -15 516 744 0 192 512 0 17 192 0 516 196 266 190 128 251 0 263
 -17 196 0 516 198 192 185 263 261 0 638 -17 266 0 516 192 198 126 444 259 0 441
 +17 198 0 516 266 196 193 638 254 0 639 +17 444 0 214 258 441 193 266 259 0 0 -
17 258 0 214 263 444 185 639 256 0 0 +17 639 0 513 638 638 193 258 256 0 444 -15
 513 751 0 638 508 0 17 638 0 513 639 639 185 198 254 0 258 -15 509 832 0 247 50
4 0 17 247 0 509 640 253 194 641 228 0 0 +17 640 0 509 642 247 120 250 248 0 0 -
17 253 0 509 247 642 123 119 245 0 641 +17 641 0 203 422 200 123 247 228 0 0 -17
 422 0 203 421 641 155 125 220 0 361 -17 200 0 203 641 204 194 116 217 0 250 -17
 116 0 214 110 250 114 200 217 0 231 +16 217 793 0 ?116 220 206 219 220 206 12 1
7 250 0 214 116 122 194 640 248 0 247 +17 122 0 214 250 119 120 244 242 0 241 -1
7 119 0 214 122 125 117 253 245 0 244 -17 244 0 505 241 241 117 122 242 0 642 +1
7 241 0 505 244 244 120 642 239 0 640 +15 505 839 0 241 499 0 17 642 0 509 253 6
40 117 241 239 0 0 -17 125 0 214 119 361 123 422 220 0 253 +17 110 0 214 113 116
 108 231 229 0 223 -17 223 0 494 225 225 108 113 224 0 227 +17 225 0 494 223 223
 111 227 233 0 221 +16 224 894 0 ?223 229 233 236 0 0 12 17 227 0 226 231 221 10
8 225 233 0 0 -82 1 498 2108293269 82 1 493 -1000144734 82 1 479 2119630997 51 3
6 1256 0 410 467 25 0 +.069 .103921212099976 .174962984538827 1 0 0 .01 0 0 -1 8
2 1 471 -996212574 17 131 0 51 440 310 129 183 264 0 279 +17 328 0 51 104 95 90
 414 326 0 425 +17 425 0 423 420 424 90 104 400 0 0 -17 92 0 417 414 346 90 420
 368 0 328 +31 235 926 0 233 0 236 0 +-.0486 -109941004398851e-33 -.060355939624
8703 1 0 0 0 0 -1 .0323 19 34 268 0 12 0 28 24 S0 74 4 CI16 index_map_offset0 0
 1 dCCZ20 32 3 0 0 550 557 21 0 0 0 0 0 0 0 0 0 0 0 0 0 0 0 0 0 80 1 31 643 644
 8017 0 0 0 0 0 0 0 0 0 TTTTTTTTTTTTTF3 79 13 644 SDL/TYSA_NAME81 1 10 176 31 7
 0 0 0 0 0 70 11 0 4 T7 0 0 3 20 1 645 645 13 13 99 0 7 0 646 0 0 647 0 50 14 94
 0 646 648 0 0 +.152 -.0323 .69264406037513 0 0 -1 -1 0 0 30 15 98 0 18 649 0 0
 +.152 -.0323 .69264406037513 -1 0 0 29 16 75 0 650 651 0 0 .2717 .6926440603751
3 19 17 33 0 7 647 0 652 V0 16 18 82 0 ?653 0 654 15 0 0 7 18 19 30 0 655 0 656
 657 ?7 17 655 0 658 659 660 19 661 662 0 663 +18 656 27 0 660 19 664 665 ?7 29
 657 32 0 19 665 666 .152 .2717 .69264406037513 29 665 29 0 656 667 657 .152 .27
17 -1.20735593962487 29 666 78 0 668 657 669 0 -.0323 .69264406037513 18 668 69
 0 670 671 0 666 ?7 29 669 77 0 671 666 651 0 -.0323 -1.20735593962487 18 671 68
 0 672 673 668 669 ?7 29 651 76 0 673 669 16 0 .2717 -1.20735593962487 18 673 67
 0 674 650 671 651 ?7 17 674 0 675 676 677 673 678 679 0 680 +18 650 66 0 681 68
2 673 16 ?7 17 681 0 683 663 680 650 684 685 0 686 +18 682 21 0 687 664 650 688
 ?7 17 687 0 689 653 690 682 691 692 0 659 -18 664 24 0 691 656 682 667 ?7 29 68
8 23 0 682 0 667 .152 -.0323 .69264406037513 29 667 26 0 664 688 665 .152 -.0323
 -1.20735593962487 17 691 0 658 660 659 664 687 692 0 690 +15 658 4 0 659 693 0
 17 660 0 658 655 691 656 694 695 0 676 +17 659 0 658 691 655 682 696 697 0 698
 +16 692 9 0 ?691 695 697 699 0 0 7 17 690 0 689 687 672 664 677 654 0 694 -15 6
89 87 0 672 700 0 17 672 0 689 690 653 671 670 701 0 677 +17 677 0 675 674 694 6
71 690 654 0 678 +16 654 81 0 ?677 18 702 649 0 0 7 17 694 0 675 677 676 664 660
 695 0 0 -15 675 85 0 674 703 0 17 676 0 675 694 674 656 680 702 0 661 -16 695 1
3 0 ?660 662 692 704 0 0 7 16 662 17 0 ?655 705 695 706 0 0 7 30 704 15 0 695 69
9 706 0 +.152 -.0323 -1.20735593962487 0 1 0 30 699 11 0 692 707 704 0 +.152 -.0
323 .69264406037513 0 0 -1 30 706 19 0 662 704 708 0 +.152 .2717 .69264406037513
 0 0 1 30 708 74 0 709 706 710 0 +0 -.0323 .69264406037513 0 -1 0 16 709 62 0 ?7
11 701 0 708 0 0 7 30 710 73 0 701 708 712 0 +0 -.0323 .69264406037513 0 0 -1 16
 701 58 0 ?672 679 709 710 0 0 7 30 712 72 0 679 710 713 0 +0 -.0323 -1.20735593
962487 0 1 0 16 679 54 0 ?674 685 701 712 0 0 7 30 713 71 0 685 712 714 0 +0 .27
17 .69264406037513 0 0 1 16 685 50 0 ?681 697 679 713 0 0 7 30 714 95 0 705 713
 715 0 +.152 .2717 .69264406037513 -1 0 0 16 705 79 0 ?686 702 662 714 0 0 7 30
 715 96 0 702 714 649 0 +.152 .2717 -1.20735593962487 -1 0 0 16 702 80 0 ?680 65
4 705 715 0 0 7 30 649 97 0 654 715 15 0 +.152 -.0323 -1.20735593962487 -1 0 0 1
7 680 0 683 681 661 673 676 702 0 684 +15 683 83 0 681 716 0 17 661 0 683 680 66
3 656 655 662 0 0 -17 684 0 717 678 718 673 681 685 0 0 -15 717 49 0 718 719 0 1
7 678 0 717 670 684 671 674 679 0 0 -17 718 0 717 684 670 650 711 709 0 0 -17 67
0 0 717 718 678 668 672 701 0 653 -17 711 0 720 698 686 668 718 709 0 0 +15 720
 89 0 711 646 0 17 698 0 720 696 711 682 653 18 0 0 -17 686 0 720 711 696 650 66
3 705 0 718 +17 696 0 720 686 698 19 659 697 0 0 -17 663 0 683 661 681 19 686 70
5 0 696 -16 697 5 0 ?659 692 685 707 0 0 7 30 707 7 0 697 0 699 0 +.152 -.0323 .
69264406037513 0 -1 0 17 653 0 689 672 687 668 698 18 0 711 +14 646 90 721 ?700
 0 720 13 14 -0 0 700 0 652 81 1 721 170 468 646 722 0 0 723 724 14 700 88 723 ?
703 646 689 13 648 -0 0 703 646 652 13 652 34 0 0 0 0 0 0 17 646 81 1 723 171 46
8 700 725 0 721 726 727 14 703 86 726 ?716 700 675 13 728 -0 0 716 700 652 50 64
8 93 0 700 728 14 0 +.152 -.0323 .69264406037513 0 1 0 0 0 1 50 728 92 0 703 729
 648 0 +.152 -.0323 -1.20735593962487 0 0 1 1 0 0 50 729 91 0 716 730 728 0 +.15
2 .2717 .69264406037513 0 -1 0 0 0 -1 14 716 84 731 ?693 703 683 13 729 -0 0 693
 703 652 50 730 70 0 719 732 729 0 +0 0 0 -1 0 0 0 0 1 14 719 48 733 ?0 693 717
 13 730 +0 0 0 693 652 50 732 3 0 693 0 730 0 +.152 0 0 -1 0 0 0 0 1 14 693 1 73
4 ?719 716 658 13 732 -0 0 719 716 652 81 1 734 175 468 693 735 0 733 0 736 81 1
 735 154 554 693 0 734 737 738 739 81 1 733 174 468 719 738 0 731 734 740 82 1 7
36 -1275723601 81 1 738 155 554 719 0 733 735 0 741 81 1 731 173 468 716 737 0 7
26 733 742 82 1 740 -1270087505 81 1 737 153 554 716 0 731 743 735 744 81 1 726
 172 468 703 743 0 723 731 745 82 1 742 -1269170001 81 1 743 152 554 703 0 726 7
25 737 746 82 1 745 -1268907857 81 1 725 151 554 700 0 723 722 743 747 83 3 746
 .792156862745098 .819607843137255 .933333333333333 81 1 722 150 554 646 0 721 0
 725 748 83 3 747 .792156862745098 .819607843137255 .933333333333333 83 3 748 .7
92156862745098 .819607843137255 .933333333333333 83 3 744 .792156862745098 .8196
07843137255 .933333333333333 83 3 741 .792156862745098 .819607843137255 .9333333
33333333 83 3 739 .792156862745098 .819607843137255 .933333333333333 82 1 727 -1
268645713 82 1 724 -1268383569 19 647 100 0 7 0 17 13 S0 74 20 645 3 0 0 734 738
 10 0 0 0 0 0 0 0 0 0 0 0 0 0 0 0 0 0 74 20 6 1 0 0 2 0 0 0 0 0 0 0 0 0 0 0 0 0
 0 0 0 0 0 0 80 2 5 749 750 9000 0 0 0 0 3 5 0 0 0 TFFFFFFFFFFFFF9 1 79 18 750 M
ULTI_BODY_ID_20011 0 
