**ABCDEFGHIJKLMNOPQRSTUVWXYZabcdefghijklmnopqrstuvwxyz**************************
**PARASOLID !"#$%&'()*+,-./:;<=>?@[\]^_`{|}~0123456789**************************
**PART1;
MC=AMD64;
MC_MODEL=Intel64 Family 6 Model 78 Stepping 3, GenuineIntel;
MC_ID=unknown;
OS=Windows_NT;
OS_RELEASE=unknown;
FRU=Parasolid Version 33.1, build 255,  1- 8-2022;
APPL=SOLIDWORKS 2022-2022167;
SITE=;
USER=unknown;
FORMAT=text;
GUISE=transmit;
KEY=FILENASCAR 8 ft open road.x_t;
DATE=Sun Dec 18 16:32:22 2022;
**PART2;
SCH=SCH_3301255_33103;
USFLD_SIZE=0;
**PART3;
**END_OF_HEADER*****************************************************************
T51 : TRANSMIT FILE created by modeller version 330125523 SCH_3301255_33103_1300
6230 0 10 21 CCCCI7 lattice222 0 CCCI4 mesh1006 0 I8 polyline1008 0 CCCCCCCCCCA1
6 mesh_offset_data206 0 Z1 7 2 3 0 0 0 0 0 0 0 0 1e3 1e-8 0 0 0 1 0 1 4 0 81 255
 2 2 7 5 1 0 0 0 0 0 0 70 11 CI9 list_type0 0 1 uI10 notransmit0 0 1 lCCCDCCDI12
 finger_index0 0 1 dI12 finger_block1012 0 CZ3 0 4 T1 0 0 1 20 1 6 6 11 255 4 5
 0 1 7 8 1 9 0 0 0 12 35 CCCI7 lattice222 0 CCCI4 mesh1006 0 I8 polyline1008 0 C
CCCCCCDI5 owner1040 0 CCCCCCI13 boundary_mesh1006 0 I17 boundary_polyline1008 0
 CCCA16 index_map_offset0 0 1 dA9 index_map82 0 A17 node_id_index_map82 0 A20 sc
hema_embedding_map82 0 A5 child12 0 A14 lowest_node_id0 0 1 dA16 mesh_offset_dat
a206 0 Z7 1722 10 11 0 0 0 0 0 0 0 1e3 1e-8 4 12 0 1 0 1 1 13 14 15 16 0 0 17 18
 19 0 0 0 0 0 0 0 100 10 CCCCCCCCCA9 precision229 0 Z8 6 4 0 0 1 0 0 0 1 0 0 0 1
 0 0 0 1 0 ?0 11 9 3 0 1 12 20 1 21 4 0 0 12 12 179 22 23 0 0 0 0 0 0 0 1e3 1e-8
 9 24 7 1 0 1 1 25 26 27 28 0 0 29 30 31 0 0 0 0 0 0 0 100 20 4 9 0 0 1 0 0 0 1
 0 0 0 1 0 0 0 1 0 ?0 11 21 1 0 1 24 32 1 0 9 0 0 12 24 179 33 34 0 0 0 0 0 0 0
 1e3 1e-8 21 35 12 1 0 1 1 36 37 38 39 0 0 40 41 42 0 0 0 0 0 0 0 100 32 2 21 0
 0 1 0 0 0 1 0 0 0 1 0 0 0 1 0 ?0 81 1 33 179 43 24 0 0 0 0 0 70 34 0 4 T24 0 0
 3 20 1 44 44 13 255 36 99 0 24 0 45 0 0 46 0 50 255 37 94 0 45 47 0 0 +1 -.0323
 2.19264406037513 0 0 -1 -1 0 0 30 255 38 98 0 41 48 0 0 +1 -.0323 2.19264406037
513 -1 0 0 29 255 39 75 0 49 50 0 0 1.9677 2.19264406037513 19 8 CCCCCCCA5 owner
12 0 Z40 33 0 24 46 0 51 V0 16 255 41 82 0 ?52 0 53 38 0 0 24 18 255 42 30 0 54
 0 55 56 ?24 17 255 54 0 57 58 59 42 60 61 0 62 +18 55 27 0 59 42 63 64 ?24 29 5
6 32 0 42 64 65 1 1.9677 2.19264406037513 29 64 29 0 55 66 56 1 1.9677 -3.807355
93962487 29 65 78 0 67 56 68 0 -.0323 2.19264406037513 18 67 69 0 69 70 0 65 ?24
 29 68 77 0 70 65 50 0 -.0323 -3.80735593962487 18 70 68 0 71 72 67 68 ?24 29 50
 76 0 72 68 39 0 1.9677 -3.80735593962487 18 72 67 0 73 49 70 50 ?24 17 73 0 74
 75 76 72 77 78 0 79 +18 49 66 0 80 81 72 39 ?24 17 80 0 82 62 79 49 83 84 0 85
 +18 81 21 0 86 63 49 87 ?24 17 86 0 88 52 89 81 90 91 0 58 -18 63 24 0 90 55 81
 66 ?24 29 87 23 0 81 0 66 1 -.0323 2.19264406037513 29 66 26 0 63 87 64 1 -.032
3 -3.80735593962487 17 90 0 57 59 58 63 86 91 0 89 +15 255 57 4 0 58 92 0 17 59
 0 57 54 90 55 93 94 0 75 +17 58 0 57 90 54 81 95 96 0 97 +16 91 9 0 ?90 94 96 9
8 0 0 24 17 89 0 88 86 71 63 76 53 0 93 -15 88 87 0 71 99 0 17 71 0 88 89 52 70
 69 100 0 76 +17 76 0 74 73 93 70 89 53 0 77 +16 53 81 0 ?76 41 101 48 0 0 24 17
 93 0 74 76 75 63 59 94 0 0 -15 74 85 0 73 102 0 17 75 0 74 93 73 55 79 101 0 60
 -16 94 13 0 ?59 61 91 103 0 0 24 16 61 17 0 ?54 104 94 105 0 0 24 30 103 15 0 9
4 98 105 0 +1 -.0323 -3.80735593962487 0 1 0 30 98 11 0 91 106 103 0 +1 -.0323 2
.19264406037513 0 0 -1 30 105 19 0 61 103 107 0 +1 1.9677 2.19264406037513 0 0 1
 30 107 74 0 108 105 109 0 +0 -.0323 2.19264406037513 0 -1 0 16 108 62 0 ?110 10
0 0 107 0 0 24 30 109 73 0 100 107 111 0 +0 -.0323 2.19264406037513 0 0 -1 16 10
0 58 0 ?71 78 108 109 0 0 24 30 111 72 0 78 109 112 0 +0 -.0323 -3.8073559396248
7 0 1 0 16 78 54 0 ?73 84 100 111 0 0 24 30 112 71 0 84 111 113 0 +0 1.9677 2.19
264406037513 0 0 1 16 84 50 0 ?80 96 78 112 0 0 24 30 113 95 0 104 112 114 0 +1
 1.9677 2.19264406037513 -1 0 0 16 104 79 0 ?85 101 61 113 0 0 24 30 114 96 0 10
1 113 48 0 +1 1.9677 -3.80735593962487 -1 0 0 16 101 80 0 ?79 53 104 114 0 0 24
 30 48 97 0 53 114 38 0 +1 -.0323 -3.80735593962487 -1 0 0 17 79 0 82 80 60 72 7
5 101 0 83 +15 82 83 0 80 115 0 17 60 0 82 79 62 55 54 61 0 0 -17 83 0 116 77 11
7 72 80 84 0 0 -15 116 49 0 117 118 0 17 77 0 116 69 83 70 73 78 0 0 -17 117 0 1
16 83 69 49 110 108 0 0 -17 69 0 116 117 77 67 71 100 0 52 -17 110 0 119 97 85 6
7 117 108 0 0 +15 119 89 0 110 45 0 17 97 0 119 95 110 81 52 41 0 0 -17 85 0 119
 110 95 49 62 104 0 117 +17 95 0 119 85 97 42 58 96 0 0 -17 62 0 82 60 80 42 85
 104 0 95 -16 96 5 0 ?58 91 84 106 0 0 24 30 106 7 0 96 0 98 0 +1 -.0323 2.19264
406037513 0 -1 0 17 52 0 88 71 86 67 97 41 0 110 +14 255 45 90 120 ?99 0 119 36
 37 -0 0 99 0 51 81 1 120 173 121 45 122 0 0 123 124 14 99 88 123 ?102 45 88 36
 47 -0 0 102 45 51 13 51 34 0 0 0 0 0 0 40 45 81 1 123 174 121 99 125 0 120 126
 127 14 102 86 126 ?115 99 74 36 128 -0 0 115 99 51 50 47 93 0 99 128 37 0 +1 -.
0323 2.19264406037513 0 1 0 0 0 1 50 128 92 0 102 129 47 0 +1 -.0323 -3.80735593
962487 0 0 1 1 0 0 50 129 91 0 115 130 128 0 +1 1.9677 2.19264406037513 0 -1 0 0
 0 -1 14 115 84 131 ?92 102 82 36 129 -0 0 92 102 51 50 130 70 0 118 132 129 0 +
0 0 0 -1 0 0 0 0 1 14 118 48 133 ?0 92 116 36 130 +0 0 0 92 51 50 132 3 0 92 0 1
30 0 +1 0 0 -1 0 0 0 0 1 14 92 1 134 ?118 115 57 36 132 -0 0 118 115 51 81 1 134
 178 121 92 135 0 133 0 136 80 255 1 121 137 138 9000 1 1 1 1 1 1 1 1 0 FFFFTFTF
FFFFFF1 81 1 135 157 139 92 0 134 140 141 142 81 1 133 177 121 118 141 0 131 134
 143 82 255 1 136 -46530338 81 1 141 158 139 118 0 133 135 0 144 81 1 131 176 12
1 115 140 0 126 133 145 82 1 143 -40894242 81 1 140 156 139 115 0 131 146 135 14
7 81 1 126 175 121 102 146 0 123 131 148 82 1 145 -39976738 81 1 146 155 139 102
 0 126 125 140 149 82 1 148 -39714594 80 1 139 0 150 8001 0 0 0 0 3 5 0 0 0 FFFF
TFTFFFFFFF2 81 1 125 154 139 99 0 123 122 146 151 83 255 3 149 .792156862745098
 .819607843137255 .933333333333333 81 1 122 153 139 45 0 120 0 125 152 83 3 151
 .792156862745098 .819607843137255 .933333333333333 83 3 152 .792156862745098 .8
19607843137255 .933333333333333 79 255 15 150 SDL/TYSA_COLOUR83 3 147 .792156862
745098 .819607843137255 .933333333333333 83 3 144 .792156862745098 .819607843137
255 .933333333333333 83 3 142 .792156862745098 .819607843137255 .933333333333333
 79 14 138 SWEntUnchanged82 1 127 -39452450 82 1 124 -39190306 19 46 100 0 24 0
 40 36 S0 74 4 CI16 index_map_offset0 0 1 dCCZ20 44 3 0 0 134 141 33 0 0 0 0 0 0
 0 0 0 0 0 0 0 0 0 0 0 80 1 43 153 154 8017 0 0 0 0 0 0 0 0 0 TTTTTTTTTTTTTF3 79
 13 154 SDL/TYSA_NAME81 1 22 179 43 12 0 0 0 0 0 70 23 0 4 T12 0 0 3 20 1 155 15
5 13 25 99 0 12 0 156 0 0 157 0 50 26 94 0 156 158 0 0 +.22 -.0323 .392644060375
1295 0 0 -1 -1 0 0 30 27 98 0 30 159 0 0 +.22 -.0323 .3926440603751295 -1 0 0 29
 28 75 0 160 161 0 0 .4077 .3926440603751295 19 29 33 0 12 157 0 162 V0 16 30 82
 0 ?163 0 164 27 0 0 12 18 31 30 0 165 0 166 167 ?12 17 165 0 168 169 170 31 171
 172 0 173 +18 166 27 0 170 31 174 175 ?12 29 167 32 0 31 175 176 .22 .4077 .392
6440603751295 29 175 29 0 166 177 167 .22 .4077 -.48735593962487 29 176 78 0 178
 167 179 0 -.0323 .3926440603751295 18 178 69 0 180 181 0 176 ?12 29 179 77 0 18
1 176 161 0 -.0323 -.48735593962487 18 181 68 0 182 183 178 179 ?12 29 161 76 0
 183 179 28 0 .4077 -.48735593962487 18 183 67 0 184 160 181 161 ?12 17 184 0 18
5 186 187 183 188 189 0 190 +18 160 66 0 191 192 183 28 ?12 17 191 0 193 173 190
 160 194 195 0 196 +18 192 21 0 197 174 160 198 ?12 17 197 0 199 163 200 192 201
 202 0 169 -18 174 24 0 201 166 192 177 ?12 29 198 23 0 192 0 177 .22 -.0323 .39
26440603751295 29 177 26 0 174 198 175 .22 -.0323 -.48735593962487 17 201 0 168
 170 169 174 197 202 0 200 +15 168 4 0 169 203 0 17 170 0 168 165 201 166 204 20
5 0 186 +17 169 0 168 201 165 192 206 207 0 208 +16 202 9 0 ?201 205 207 209 0 0
 12 17 200 0 199 197 182 174 187 164 0 204 -15 199 87 0 182 210 0 17 182 0 199 2
00 163 181 180 211 0 187 +17 187 0 185 184 204 181 200 164 0 188 +16 164 81 0 ?1
87 30 212 159 0 0 12 17 204 0 185 187 186 174 170 205 0 0 -15 185 85 0 184 213 0
 17 186 0 185 204 184 166 190 212 0 171 -16 205 13 0 ?170 172 202 214 0 0 12 16
 172 17 0 ?165 215 205 216 0 0 12 30 214 15 0 205 209 216 0 +.22 -.0323 -.487355
93962487 0 1 0 30 209 11 0 202 217 214 0 +.22 -.0323 .3926440603751295 0 0 -1 30
 216 19 0 172 214 218 0 +.22 .4077 .3926440603751295 0 0 1 30 218 74 0 219 216 2
20 0 +0 -.0323 .3926440603751295 0 -1 0 16 219 62 0 ?221 211 0 218 0 0 12 30 220
 73 0 211 218 222 0 +0 -.0323 .3926440603751295 0 0 -1 16 211 58 0 ?182 189 219
 220 0 0 12 30 222 72 0 189 220 223 0 +0 -.0323 -.48735593962487 0 1 0 16 189 54
 0 ?184 195 211 222 0 0 12 30 223 71 0 195 222 224 0 +0 .4077 .3926440603751295
 0 0 1 16 195 50 0 ?191 207 189 223 0 0 12 30 224 95 0 215 223 225 0 +.22 .4077
 .3926440603751295 -1 0 0 16 215 79 0 ?196 212 172 224 0 0 12 30 225 96 0 212 22
4 159 0 +.22 .4077 -.48735593962487 -1 0 0 16 212 80 0 ?190 164 215 225 0 0 12 3
0 159 97 0 164 225 27 0 +.22 -.0323 -.48735593962487 -1 0 0 17 190 0 193 191 171
 183 186 212 0 194 +15 193 83 0 191 226 0 17 171 0 193 190 173 166 165 172 0 0 -
17 194 0 227 188 228 183 191 195 0 0 -15 227 49 0 228 229 0 17 188 0 227 180 194
 181 184 189 0 0 -17 228 0 227 194 180 160 221 219 0 0 -17 180 0 227 228 188 178
 182 211 0 163 -17 221 0 230 208 196 178 228 219 0 0 +15 230 89 0 221 156 0 17 2
08 0 230 206 221 192 163 30 0 0 -17 196 0 230 221 206 160 173 215 0 228 +17 206
 0 230 196 208 31 169 207 0 0 -17 173 0 193 171 191 31 196 215 0 206 -16 207 5 0
 ?169 202 195 217 0 0 12 30 217 7 0 207 0 209 0 +.22 -.0323 .3926440603751295 0
 -1 0 17 163 0 199 182 197 178 208 30 0 221 +14 156 90 231 ?210 0 230 25 26 -0 0
 210 0 162 81 1 231 173 121 156 232 0 0 233 234 14 210 88 233 ?213 156 199 25 15
8 -0 0 213 156 162 13 162 34 0 0 0 0 0 0 29 156 81 1 233 174 121 210 235 0 231 2
36 237 14 213 86 236 ?226 210 185 25 238 -0 0 226 210 162 50 158 93 0 210 238 26
 0 +.22 -.0323 .3926440603751295 0 1 0 0 0 1 50 238 92 0 213 239 158 0 +.22 -.03
23 -.48735593962487 0 0 1 1 0 0 50 239 91 0 226 240 238 0 +.22 .4077 .3926440603
751295 0 -1 0 0 0 -1 14 226 84 241 ?203 213 193 25 239 -0 0 203 213 162 50 240 7
0 0 229 242 239 0 +0 0 0 -1 0 0 0 0 1 14 229 48 243 ?0 203 227 25 240 +0 0 0 203
 162 50 242 3 0 203 0 240 0 +.22 0 0 -1 0 0 0 0 1 14 203 1 244 ?229 226 168 25 2
42 -0 0 229 226 162 81 1 244 178 121 203 245 0 243 0 246 81 1 245 157 139 203 0
 244 247 248 249 81 1 243 177 121 229 248 0 241 244 250 82 1 246 -23002912 81 1
 248 158 139 229 0 243 245 0 251 81 1 241 176 121 226 247 0 236 243 252 82 1 250
 -17366816 81 1 247 156 139 226 0 241 253 245 254 81 1 236 175 121 213 253 0 233
 241 255 82 1 252 -16449312 81 1 253 155 139 213 0 236 235 247 256 82 1 255 -161
87168 81 1 235 154 139 210 0 233 232 253 257 83 3 256 .792156862745098 .81960784
3137255 .933333333333333 81 1 232 153 139 156 0 231 0 235 258 83 3 257 .79215686
2745098 .819607843137255 .933333333333333 83 3 258 .792156862745098 .81960784313
7255 .933333333333333 83 3 254 .792156862745098 .819607843137255 .93333333333333
3 83 3 251 .792156862745098 .819607843137255 .933333333333333 83 3 249 .79215686
2745098 .819607843137255 .933333333333333 82 1 237 -15925024 82 1 234 -15662880
 19 157 100 0 12 0 29 25 S0 74 20 155 3 0 0 244 248 22 0 0 0 0 0 0 0 0 0 0 0 0 0
 0 0 0 0 81 1 10 1722 43 7 0 0 0 0 0 70 11 0 4 T7 0 0 3 20 1 259 259 13 13 267 0
 7 0 260 0 0 261 0 51 255 14 1277 0 262 263 0 0 +.069 .0727862772493507 .2527936
265968205 -1 0 0 .01 0 0 1 31 255 15 1137 0 18 264 0 0 -.069 .103921212099976 .1
74962984538827 1 0 0 0 0 -1 .01 29 16 1485 0 19 265 0 .069 .0819 -.1932 19 17 89
 0 7 261 0 266 V0 16 18 1127 0 ?267 0 268 15 0 0 7 18 19 1483 0 269 0 270 16 ?7
 17 269 0 271 272 273 19 274 275 0 276 -18 270 1061 0 277 19 278 265 ?7 17 277 0
 279 280 281 270 282 283 0 284 +18 278 1058 0 267 270 285 286 ?7 29 265 1063 0 2
70 286 16 .069 .0826889579367665 .254185357606421 29 286 1060 0 278 287 265 .069
 .0940185314125603 .1735712535292265 29 287 1057 0 285 288 286 .069 .09572969165
70861 .1692272201753165 18 285 1055 0 289 278 290 287 ?7 29 288 1054 0 290 291 2
87 .069 .13189152044289 .1175827764747206 18 290 1052 0 292 285 293 288 ?7 29 29
1 1046 0 293 294 288 .069 .1237 0 18 293 1044 0 295 290 296 291 ?7 29 294 1022 0
 296 297 291 -.069 .0957296916570861 .1692272201753165 18 296 1020 0 298 293 299
 294 ?7 29 297 1019 0 299 300 294 -.069 .13189152044289 .1175827764747206 18 299
 1017 0 301 296 302 297 ?7 29 300 1016 0 302 303 297 -.069 .0826889579367665 .25
4185357606421 18 302 1014 0 304 299 305 300 ?7 29 303 1013 0 305 306 300 -.069 .
0940185314125603 .1735712535292265 18 305 1011 0 307 302 308 303 ?7 29 306 1010
 0 308 309 303 -.069 .1237 0 18 308 1008 0 310 305 311 306 ?7 29 309 997 0 311 3
12 306 .069 .1337 .1118470121112102 18 311 995 0 313 308 314 309 ?7 29 312 994 0
 314 315 309 .069 .1337 .01 18 314 992 0 316 311 317 312 ?7 29 315 991 0 317 318
 312 -.069 .1337 .1118470121112102 18 317 989 0 319 314 320 315 ?7 29 318 988 0
 320 321 315 -.069 .1337 .01 18 320 986 0 322 317 323 318 ?7 29 321 975 0 323 32
4 318 .069 .0368284986066279 .2627936265968205 18 323 973 0 325 320 326 321 ?7 2
9 324 972 0 326 327 321 .069 .0727862772493507 .2627936265968205 18 326 970 0 32
8 323 329 324 ?7 29 327 969 0 329 330 324 -.069 .0368284986066279 .2627936265968
205 18 329 967 0 331 326 332 327 ?7 29 330 966 0 332 333 327 -.069 .072786277249
3507 .2627936265968205 18 332 964 0 334 329 335 330 ?7 29 333 958 0 335 336 330
 .069 .02915979813649285 .2663756025162055 18 335 956 0 337 332 338 333 ?7 29 33
6 955 0 338 339 333 -.069 .02915979813649285 .2663756025162055 18 338 953 0 340
 335 341 336 ?7 29 339 873 0 341 342 336 -.0486 0 -.04205593962487025 18 341 871
 0 343 338 344 339 ?7 29 342 870 0 344 345 339 -.0486 0 -.1066559396248702 18 34
4 868 0 346 341 347 342 ?7 29 345 864 0 347 348 342 -.069 0 -.04205593962487025
 18 347 862 0 349 344 350 345 ?7 29 348 801 0 350 351 345 -.0486 0 .224944060375
1295 18 350 799 0 352 347 353 348 ?7 29 351 798 0 353 354 348 -.0486 0 .16034406
03751295 18 353 796 0 355 350 356 351 ?7 29 354 792 0 356 357 351 -.069 0 .22494
40603751295 18 356 790 0 358 353 359 354 ?7 29 357 707 0 359 360 354 .069 228403
8673946685e-34 -.1066559396248702 18 359 705 0 361 356 362 357 ?7 29 360 635 0 3
62 363 357 .069 -343377064908479e-33 .1603440603751295 18 362 633 0 364 359 365
 360 ?7 29 363 488 0 365 366 360 -.069 .0819 0 18 365 486 0 367 362 368 363 ?7 2
9 366 204 0 369 370 363 -.069 0 -.2032 18 369 179 0 371 372 373 366 ?7 29 370 20
6 0 373 374 366 -.069 -562772976849645e-33 .2627936265968205 18 373 181 0 375 36
9 376 370 ?7 29 374 61 0 368 377 370 .069 0 -.2032 18 368 59 0 378 365 372 374 ?
7 29 377 55 0 372 379 374 .069 -562772976849645e-33 .2627936265968205 18 372 53
 0 380 368 369 377 ?7 29 379 457 0 376 381 377 .069 .0819 -430241969760924e-32 1
8 376 410 0 274 373 382 379 ?7 29 381 696 0 383 384 379 .069 0 .2249440603751295
 18 383 669 0 385 386 387 381 ?7 29 384 698 0 382 388 381 .0486 0 .2249440603751
295 18 382 666 0 389 376 386 384 ?7 29 388 699 0 386 390 384 .0486 -562772976849
645e-33 .1603440603751295 18 386 668 0 391 382 383 388 ?7 29 390 768 0 392 393 3
88 .069 -562772976849645e-33 -.04205593962487025 18 392 741 0 394 395 396 390 ?7
 29 393 770 0 387 397 390 .0486 -562772976849645e-33 -.04205593962487025 18 387
 738 0 398 383 395 393 ?7 29 397 771 0 395 399 393 .0486 -562772976849645e-33 -.
1066559396248702 18 395 740 0 400 387 392 397 ?7 29 399 856 0 396 401 397 -.069
 -562772976849645e-33 .1603440603751295 18 396 829 0 402 392 403 399 ?7 29 401 9
28 0 403 404 399 -.069 -562772976849645e-33 -.1066559396248702 18 403 901 0 405
 396 406 401 ?7 29 404 1553 0 406 407 401 -.069 .0989 -.2032 18 406 1515 0 408 4
03 409 404 ?7 29 407 1554 0 409 410 404 -.069 .0819 -.1932 18 409 1514 0 411 406
 412 407 ?7 29 410 1557 0 412 0 407 .069 .0989 -.2032 18 412 1510 0 413 409 0 41
0 ?7 17 413 0 414 415 378 412 416 417 0 418 +15 414 468 0 419 420 0 17 415 0 414
 274 413 19 421 422 0 0 +17 378 0 414 413 361 368 423 424 0 425 +17 416 0 426 42
7 418 368 413 417 0 0 -16 417 17 0 ?413 275 428 429 0 0 7 17 418 0 426 416 408 4
12 430 431 0 421 +15 426 235 0 408 432 0 17 408 0 426 418 427 406 433 434 0 435
 +17 430 0 436 437 421 406 418 431 0 0 -16 431 1495 0 ?418 438 422 439 0 0 7 17
 421 0 436 430 276 412 415 422 0 0 -15 436 1527 0 437 440 0 17 276 0 436 421 437
 19 272 438 0 415 +16 422 1501 0 ?415 431 0 441 0 0 7 30 441 1548 0 422 0 442 0
 +.069 .0819 -.1932 0 -.861934215157769 .507020126563394 30 442 1545 0 438 441 4
39 0 +-.088723082923316 .0819 -.1932 1 0 0 16 438 1497 0 ?276 443 431 442 0 0 7
 30 439 1544 0 431 442 444 0 +-.088723082923316 .0989 -.2032 1 0 0 30 444 1543 0
 443 439 445 0 +-.069 .0819 -.1932 0 .861934215157769 -.507020126563394 16 443 1
509 0 ?435 446 438 444 0 0 7 31 445 927 0 447 444 448 0 +-.0486 -562772976849645
e-33 -.0743559396248703 1 0 0 0 0 -1 .0323 16 447 892 0 ?449 450 446 445 0 0 7 3
0 448 926 0 450 445 451 0 +-.0486 -562772976849645e-33 -.04205593962487025 0 0 1
 16 450 895 0 ?452 453 447 448 0 0 7 31 451 925 0 446 448 454 0 +-.069 -56277297
6849645e-33 -.0743559396248703 1 0 0 0 0 -1 .0323 16 446 884 0 ?455 447 443 451
 0 0 7 30 454 923 0 456 451 457 0 +-.0486 -562772976849645e-33 -.106655939624870
2 -1 0 0 16 456 891 0 ?458 459 453 454 0 0 7 30 457 922 0 453 454 460 0 +-.0486
 -562772976849645e-33 -.04205593962487025 -1 0 0 16 453 887 0 ?461 456 450 457 0
 0 7 31 460 855 0 462 457 463 0 +-.0486 0 .1926440603751295 1 0 0 0 0 -1 .0323 1
6 462 820 0 ?464 465 459 460 0 0 7 30 463 854 0 465 460 466 0 +-.0486 0 .2249440
603751295 0 87116559883846e-31 1 16 465 823 0 ?467 468 462 463 0 0 7 31 466 853
 0 459 463 469 0 +-.069 0 .1926440603751295 1 0 0 0 0 -1 .0323 16 459 812 0 ?470
 462 456 466 0 0 7 30 469 851 0 471 466 472 0 +-.0486 -562772976849645e-33 .1603
440603751295 -1 0 0 16 471 819 0 ?473 474 468 469 0 0 7 30 472 850 0 468 469 475
 0 +-.0486 0 .2249440603751295 -1 0 0 16 468 815 0 ?476 471 465 472 0 0 7 31 475
 767 0 477 472 478 0 +.0486 -562772976849645e-33 -.0743559396248703 1 0 0 0 0 -1
 .0323 16 477 724 0 ?400 479 474 475 0 0 7 30 478 766 0 479 475 480 0 +.0486 -56
2772976849645e-33 -.04205593962487025 0 0 1 16 479 728 0 ?481 482 477 478 0 0 7
 31 480 765 0 474 478 483 0 +.069 -562772976849645e-33 -.0743559396248703 1 0 0
 0 0 -1 .0323 16 474 732 0 ?361 477 471 480 0 0 7 30 483 763 0 484 480 485 0 +.0
486 -562772976849645e-33 -.04205593962487025 1 0 0 16 484 731 0 ?486 487 482 483
 0 0 7 30 485 762 0 482 483 488 0 +.0486 -562772976849645e-33 -.1066559396248702
 1 0 0 16 482 727 0 ?489 484 479 485 0 0 7 31 488 695 0 490 485 491 0 +.0486 0 .
1926440603751295 1 0 0 0 0 -1 .0323 16 490 652 0 ?391 492 487 488 0 0 7 30 491 6
94 0 492 488 493 0 +.0486 0 .2249440603751295 0 87116559883846e-31 1 16 492 656
 0 ?494 495 490 491 0 0 7 31 493 693 0 487 491 496 0 +.069 0 .1926440603751295 1
 0 0 0 0 -1 .0323 16 487 660 0 ?364 490 484 493 0 0 7 30 496 691 0 497 493 498 0
 +.0486 0 .2249440603751295 1 0 0 16 497 659 0 ?499 500 495 496 0 0 7 30 498 690
 0 495 496 501 0 +.0486 -562772976849645e-33 .1603440603751295 1 0 0 16 495 655
 0 ?502 497 492 498 0 0 7 30 501 444 0 500 498 503 0 +.069 .0819 -43024196976092
4e-32 -1 946221345929965e-45 102273650422565e-29 16 500 384 0 ?504 505 497 501 0
 0 7 31 503 7 0 506 501 507 0 +.069 .0157395723137565 .2551440603751295 1 0 0 0
 0 -1 .0175 16 506 957 0 ?380 424 508 503 0 0 7 30 507 11 0 428 503 429 0 +.069
 -562772976849645e-33 .2627936265968205 0 214150161911291e-32 -1 16 428 9 0 ?509
 417 510 507 424 510 7 30 429 19 0 417 507 511 0 +.069 0 -.2032 0 1 0 30 511 23
 0 275 429 512 0 +.069 .0819 -.2032 0 925185853854296e-30 1 16 275 1484 0 ?274 5
13 417 511 0 0 7 30 512 35 0 513 511 514 0 +.069 .02 0 0 1 0 16 513 353 0 ?419 5
15 275 512 0 0 7 30 514 39 0 515 512 516 0 +.069 .1337 0 0 0 1 16 515 993 0 ?517
 518 513 514 0 0 7 30 516 43 0 518 514 519 0 +.069 .1337 .115 0 -.57357643635104
2 .819152044288994 16 518 1053 0 ?520 521 515 516 0 0 7 30 519 47 0 521 516 522
 0 +.069 .0943526564663185 .171193830238225 0 -.1391731009600588 .99026806874157
1 16 521 1059 0 ?284 523 518 519 0 0 7 30 522 51 0 523 519 524 0 +.069 .08147914
46275131 .2627936265968205 0 -1 -2220446049250315e-30 16 523 971 0 ?525 526 521
 522 0 0 7 31 524 194 0 505 522 527 0 +-.069 .0157395723137565 .2551440603751295
 1 0 0 0 0 -1 .0175 16 505 954 0 ?375 528 500 524 0 0 7 30 527 192 0 529 524 530
 0 +-.069 0 0 0 0 -1 16 529 158 0 ?358 434 531 527 528 531 7 30 530 191 0 434 52
7 532 0 +-.069 0 -.2032 0 1 0 16 434 154 0 ?408 533 529 530 0 0 7 30 532 190 0 5
33 530 534 0 +-.069 .0819 -.2032 0 925185853854296e-30 1 16 533 1481 0 ?367 535
 434 532 0 0 7 30 534 187 0 535 532 536 0 +-.069 .02 0 0 1 0 16 535 487 0 ?537 5
38 533 534 0 0 7 30 536 186 0 538 534 539 0 +-.069 .1337 0 0 0 1 16 538 987 0 ?5
40 541 535 536 0 0 7 30 539 185 0 541 536 542 0 +-.069 .1337 .115 0 -.5735764363
51042 .819152044288994 16 541 1018 0 ?543 544 538 539 0 0 7 30 542 184 0 544 539
 545 0 +-.069 .0943526564663185 .171193830238225 0 -.1391731009600588 .990268068
741571 16 544 1012 0 ?281 508 541 542 0 0 7 30 545 183 0 508 542 546 0 +-.069 .0
814791446275131 .2627936265968205 0 -1 -2220446049250315e-30 16 508 965 0 ?547 5
06 544 545 0 0 7 30 546 264 0 526 545 548 0 +.069 0 -.2032 -1 0 0 16 526 216 0 ?
427 549 523 546 0 0 7 30 548 266 0 549 546 550 0 +.069 -562772976849645e-33 .262
7936265968205 -1 0 0 16 549 218 0 ?551 552 526 548 0 0 7 30 550 961 0 552 548 55
3 0 +.069 .02915979813649285 .2663756025162055 -1 0 0 16 552 959 0 ?554 555 549
 550 0 0 7 30 553 978 0 555 550 556 0 +.069 .0727862772493507 .2627936265968205
 -1 0 0 16 555 976 0 ?557 558 552 553 0 0 7 30 556 983 0 558 553 559 0 +.069 .03
68284986066279 .2627936265968205 1 0 0 16 558 981 0 ?325 560 555 556 0 0 7 30 55
9 1000 0 560 556 561 0 -.069 .1337 .1118470121112102 -1 0 0 16 560 998 0 ?313 56
2 558 559 0 0 7 30 561 1005 0 562 559 563 0 +.069 .1337 .01 -1 0 0 16 562 1003 0
 ?564 565 560 561 0 0 7 31 563 1025 0 565 561 566 0 --.069 .0727862772493507 .25
27936265968205 1 0 0 0 0 -1 .01 16 565 1023 0 ?304 567 562 563 0 0 7 31 566 1032
 0 567 563 568 0 --.069 .1237 .1118470121112102 1 0 0 0 0 -1 .01 16 567 1030 0 ?
319 569 565 566 0 0 7 31 568 1039 0 569 566 570 0 --.069 .1237 .01 1 0 0 0 0 -1
 .01 16 569 1037 0 ?310 571 567 568 0 0 7 30 570 1049 0 571 568 572 0 -.069 .123
7 0 -1 0 0 16 571 1047 0 ?295 573 569 570 0 0 7 31 572 1066 0 573 570 574 0 +.06
9 .0727862772493507 .2527936265968205 1 0 0 0 0 -1 .01 16 573 1064 0 ?328 575 57
1 572 0 0 7 31 574 1074 0 575 572 576 0 +.069 .1237 .1118470121112102 1 0 0 0 0
 -1 .01 16 575 1072 0 ?292 577 573 574 0 0 7 31 576 1082 0 577 574 578 0 +.069 .
1237 .01 1 0 0 0 0 -1 .01 16 577 1080 0 ?316 579 575 576 0 0 7 30 578 1090 0 579
 576 580 0 -.069 .0957296916570861 .1692272201753165 -1 0 0 16 579 1088 0 ?289 5
81 577 578 0 0 7 30 580 1095 0 581 578 582 0 +.069 .13189152044289 .117582776474
7206 -1 0 0 16 581 1093 0 ?583 283 579 580 0 0 7 30 582 1100 0 283 580 584 0 -.0
69 .0826889579367665 .254185357606421 -1 0 0 16 283 1098 0 ?277 585 581 582 0 0
 7 30 584 1105 0 585 582 586 0 +-.069 .0940185314125603 .1735712535292265 -1 0 0
 16 585 1103 0 ?587 588 283 584 0 0 7 31 586 1134 0 588 584 589 0 +-.069 .036828
4986066279 .2727936265968205 1 0 0 0 0 -1 .01 16 588 1108 0 ?331 590 585 586 0 0
 7 31 589 1135 0 590 586 264 0 -.069 .0368284986066279 .2727936265968205 1 0 0 0
 0 -1 .01 16 590 1114 0 ?337 268 588 589 0 0 7 31 264 1136 0 268 589 15 0 +-.069
 .103921212099976 .174962984538827 1 0 0 0 0 -1 .01 16 268 1121 0 ?298 18 590 26
4 0 0 7 17 298 0 591 592 593 296 307 268 0 543 +15 591 603 0 594 595 0 17 592 0
 591 319 298 299 543 541 0 0 -17 593 0 591 298 304 305 281 544 0 0 -17 307 0 596
 597 598 305 298 268 0 587 -17 543 0 599 289 583 296 592 541 0 598 +15 599 223 0
 600 601 0 17 289 0 599 600 543 285 598 579 0 520 +17 583 0 599 543 600 299 602
 581 0 592 +17 598 0 596 307 603 296 289 579 0 0 -15 596 1245 0 603 604 0 17 603
 0 596 598 597 285 267 18 0 0 -17 597 0 596 603 307 278 587 585 0 0 -17 267 0 41
4 284 520 278 603 18 0 280 +17 284 0 414 328 267 270 280 521 0 605 +17 520 0 414
 267 292 285 600 518 0 603 +17 280 0 279 587 277 278 284 521 0 597 -15 279 221 0
 280 606 0 17 587 0 279 281 280 305 597 585 0 593 +17 281 0 279 277 587 302 593
 544 0 282 +17 282 0 607 334 605 302 277 283 0 0 -15 607 1266 0 605 262 0 17 334
 0 607 608 282 332 304 565 0 557 -17 605 0 607 282 608 270 328 573 0 0 -17 608 0
 607 605 334 326 557 555 0 0 -17 328 0 414 525 284 326 605 573 0 609 +17 525 0 4
14 337 328 323 609 523 0 610 +17 609 0 611 557 325 326 525 523 0 608 -15 611 219
 0 547 612 0 17 557 0 611 547 609 332 608 555 0 613 +17 325 0 611 609 547 323 61
4 558 0 525 +17 547 0 611 325 557 329 613 508 0 614 +17 614 0 615 340 610 329 32
5 558 0 0 -15 615 1182 0 610 616 0 17 340 0 615 617 614 338 331 588 0 554 -17 61
0 0 615 614 617 323 337 590 0 0 -17 617 0 615 610 340 335 554 552 0 0 -17 337 0
 414 380 525 335 610 590 0 618 +17 380 0 414 509 337 372 618 506 0 619 +17 618 0
 620 554 621 335 380 506 0 617 -15 620 241 0 618 622 0 17 554 0 620 375 618 338
 617 552 0 623 +17 621 0 620 618 375 372 551 549 0 0 -17 375 0 620 621 554 373 6
23 505 0 624 +17 551 0 625 358 619 373 621 549 0 0 +15 625 878 0 458 626 0 17 35
8 0 625 352 551 356 624 529 0 476 +17 619 0 625 551 499 372 509 428 0 621 -17 49
9 0 625 619 494 383 389 497 0 509 +17 509 0 414 364 380 383 619 428 0 0 +17 364
 0 414 627 509 362 385 487 0 502 +17 627 0 414 361 364 392 628 510 0 0 +17 385 0
 629 389 502 383 364 487 0 499 -17 502 0 629 385 391 362 630 495 0 628 +15 629 6
73 0 385 631 0 17 391 0 629 502 389 386 632 490 0 633 +17 630 0 625 494 628 386
 502 495 0 0 -17 628 0 625 630 486 362 627 510 0 0 -17 486 0 625 628 481 392 398
 484 0 627 +16 510 634 0 ?627 428 424 507 428 424 7 16 424 706 0 ?378 510 506 50
7 510 428 7 17 481 0 625 486 634 387 635 479 0 0 +17 398 0 636 400 394 387 486 4
84 0 637 -15 636 745 0 394 638 0 17 400 0 636 489 398 395 637 477 0 635 +17 394
 0 636 398 489 392 361 474 0 486 -17 637 0 639 635 635 387 400 477 0 481 -15 639
 752 0 637 640 0 17 635 0 639 637 637 395 481 479 0 634 -17 634 0 625 481 423 39
5 489 482 0 0 -17 423 0 625 634 425 359 378 424 0 0 -17 489 0 636 394 400 359 63
4 482 0 423 +17 425 0 625 423 371 368 427 526 0 416 -17 371 0 625 425 458 369 40
5 528 0 427 +17 427 0 426 408 416 369 425 526 0 433 +17 433 0 591 405 435 369 40
8 434 0 0 -17 405 0 591 641 433 403 371 528 0 458 -17 435 0 591 433 411 406 437
 443 0 430 +17 411 0 591 435 642 409 367 533 0 272 -17 437 0 436 276 430 409 435
 443 0 0 -17 642 0 591 411 310 365 537 535 0 0 -17 367 0 271 273 272 365 411 533
 0 504 +17 272 0 271 367 269 409 276 438 0 437 -15 271 233 0 269 643 0 14 643 23
4 644 ?645 432 271 13 646 -0 0 645 432 266 81 1 644 1697 121 643 647 0 0 648 649
 14 645 226 648 ?601 643 650 13 651 -0 0 601 643 266 14 432 236 652 ?643 622 426
 13 653 -0 0 643 622 266 50 646 250 0 643 654 653 0 +.069 .0819 -.2032 0 -1 9251
85853854296e-30 0 -925185853854296e-30 -1 13 266 90 0 0 0 0 0 0 17 260 14 260 13
15 655 ?626 0 656 13 654 -0 0 626 0 266 81 1 655 1700 121 260 657 0 652 658 659
 14 626 880 658 ?622 260 625 13 660 -0 0 622 260 266 15 656 1313 0 504 260 0 50
 654 247 0 260 651 646 0 +.069 .02 0 0 0 1 1 0 0 50 651 246 0 645 661 654 0 +.06
9 .1337 0 0 -1 0 0 0 -1 50 661 245 0 601 662 651 0 +.069 .1337 .115 0 -.81915204
4288995 -.573576436351042 0 .573576436351042 -.819152044288995 14 601 224 663 ?6
06 645 599 13 661 -0 0 606 645 266 50 662 244 0 606 664 661 0 +.069 .09435265646
63185 .171193830238225 0 -.990268068741571 -.1391731009600588 0 .139173100960058
8 -.990268068741571 14 606 222 665 ?612 601 279 13 662 -0 0 612 601 266 50 664 2
43 0 612 666 662 0 +.069 .0814791446275131 .2627936265968205 0 2220446049250315e
-30 -1 0 1 2220446049250315e-30 14 612 220 667 ?420 606 611 13 664 -0 0 420 606
 266 50 666 182 0 595 668 664 0 +-.069 .0157395723137565 .2551440603751295 1 0 0
 0 0 -1 14 595 120 669 ?631 420 591 13 666 -0 0 631 420 266 50 668 3 0 420 670 6
66 0 +.069 .0157395723137565 .2551440603751295 1 0 0 0 0 -1 14 420 1 671 ?595 61
2 414 13 668 +0 0 595 612 266 51 670 686 0 631 672 668 0 +.0486 0 .1926440603751
295 1 0 0 .0323 0 0 -1 14 631 670 673 ?674 595 629 13 670 +0 0 674 595 266 50 67
2 689 0 674 675 670 0 +.0486 0 .1926440603751295 1 0 0 0 0 -1 14 674 678 676 ?63
8 631 677 13 672 -0 0 638 631 266 51 675 758 0 638 678 672 0 +.0486 -56277297684
9645e-33 -.0743559396248703 1 0 0 .0323 0 0 -1 14 638 742 679 ?640 674 636 13 67
5 +0 0 640 674 266 50 678 761 0 640 680 675 0 +.0486 -562772976849645e-33 -.0743
559396248703 1 0 0 0 0 -1 14 640 750 681 ?682 638 639 13 678 -0 0 682 638 266 51
 680 846 0 682 683 678 0 --.0486 0 .1926440603751295 -1 0 0 .0323 0 0 1 14 682 8
30 684 ?685 640 686 13 680 -0 0 685 640 266 50 683 849 0 685 687 680 0 +-.0486 0
 .1926440603751295 -1 0 0 0 0 -1 14 685 838 688 ?689 682 690 13 683 -0 0 689 682
 266 51 687 918 0 689 691 683 0 --.0486 -562772976849645e-33 -.0743559396248703
 -1 0 0 .0323 0 0 1 14 689 902 692 ?693 685 694 13 687 -0 0 693 685 266 50 691 9
21 0 693 695 687 0 +-.0486 -562772976849645e-33 -.0743559396248703 -1 0 0 0 0 -1
 14 693 910 696 ?616 689 697 13 691 -0 0 616 689 266 50 695 1539 0 440 0 691 0 +
-.088723082923316 .0819 -.1932 0 .507020126563394 .861934215157769 0 -.861934215
157769 .507020126563394 14 440 1524 698 ?0 262 436 13 695 +0 0 0 262 266 81 1 69
8 1715 121 440 699 0 696 700 701 14 262 1265 700 ?440 604 607 13 14 +0 0 440 604
 266 81 1 700 1716 121 262 702 0 698 703 704 14 604 1244 703 ?262 705 596 13 263
 -0 0 262 705 266 81 1 703 1717 121 604 706 0 700 707 708 14 705 1223 707 ?604 7
09 710 13 711 +0 0 604 709 266 51 263 1256 0 604 711 14 0 +.069 .103921212099976
 .174962984538827 1 0 0 .01 0 0 -1 51 711 1235 0 705 712 263 0 +.069 .1237 .1118
470121112102 -1 0 0 .01 0 0 1 51 712 1214 0 709 713 711 0 +.069 .1237 .01 -1 0 0
 .01 0 0 1 14 709 1202 714 ?705 616 715 13 712 +0 0 705 616 266 51 713 1193 0 61
6 716 712 0 +.069 .0368284986066279 .2727936265968205 -1 0 0 .01 0 0 1 14 616 11
81 717 ?709 693 615 13 713 -0 0 709 693 266 51 716 254 0 622 660 713 0 -.069 .01
57395723137565 .2551440603751295 -1 0 0 .0175 0 0 1 14 622 242 718 ?432 626 620
 13 716 -0 0 432 626 266 50 660 252 0 626 653 716 0 +.069 0 0 0 1 0 0 0 1 50 653
 251 0 432 646 660 0 +.069 0 -.2032 0 0 1 1 0 0 81 1 718 1721 121 622 719 0 717
 0 720 81 1 719 1610 139 622 0 718 721 722 723 81 1 717 1720 121 616 724 0 714 7
18 725 82 1 720 65470684 81 1 724 1627 139 616 0 717 726 727 728 81 1 714 1719 1
21 709 727 0 707 717 729 82 1 725 -91553572 81 1 727 1628 139 709 0 714 724 730
 731 81 1 707 1718 121 705 730 0 703 714 732 82 1 729 -89587492 81 1 730 1629 13
9 705 0 707 727 706 733 82 1 732 -87621412 81 1 706 1630 139 604 0 703 730 702 7
34 83 3 733 .792156862745098 .819607843137255 .933333333333333 81 1 702 1631 139
 262 0 700 706 699 735 83 3 734 .792156862745098 .819607843137255 .9333333333333
33 81 1 699 1632 139 440 0 698 702 0 736 83 3 735 .792156862745098 .819607843137
255 .933333333333333 83 3 736 .792156862745098 .819607843137255 .933333333333333
 83 3 731 .792156862745098 .819607843137255 .933333333333333 81 1 726 1626 139 6
93 0 696 737 724 738 83 3 728 .792156862745098 .819607843137255 .933333333333333
 81 1 696 1714 121 693 726 0 692 698 739 81 1 737 1625 139 689 0 692 740 726 741
 83 3 738 .792156862745098 .819607843137255 .933333333333333 81 1 692 1713 121 6
89 737 0 688 696 742 81 1 740 1624 139 685 0 688 743 737 744 83 3 741 .792156862
745098 .819607843137255 .933333333333333 81 1 688 1712 121 685 740 0 684 692 745
 81 1 743 1623 139 682 0 684 746 740 747 83 3 744 .792156862745098 .819607843137
255 .933333333333333 81 1 684 1711 121 682 743 0 681 688 748 81 1 746 1622 139 6
40 0 681 749 743 750 83 3 747 .792156862745098 .819607843137255 .933333333333333
 81 1 681 1710 121 640 746 0 679 684 751 81 1 749 1621 139 638 0 679 752 746 753
 83 3 750 .792156862745098 .819607843137255 .933333333333333 81 1 679 1709 121 6
38 749 0 676 681 754 81 1 752 1620 139 674 0 676 755 749 756 83 3 753 .792156862
745098 .819607843137255 .933333333333333 81 1 676 1708 121 674 752 0 673 679 757
 81 1 755 1619 139 631 0 673 758 752 759 83 3 756 .792156862745098 .819607843137
255 .933333333333333 81 1 673 1707 121 631 755 0 671 676 760 81 1 758 1618 139 5
95 0 669 761 755 762 83 3 759 .792156862745098 .819607843137255 .933333333333333
 81 1 669 1705 121 595 758 0 667 671 763 81 1 761 1617 139 420 0 671 764 758 765
 83 3 762 .792156862745098 .819607843137255 .933333333333333 81 1 671 1706 121 4
20 761 0 669 673 766 81 1 764 1616 139 612 0 667 767 761 768 83 3 765 .792156862
745098 .819607843137255 .933333333333333 81 1 667 1704 121 612 764 0 665 669 769
 81 1 767 1615 139 606 0 665 770 764 771 83 3 768 .792156862745098 .819607843137
255 .933333333333333 81 1 665 1703 121 606 767 0 663 667 772 81 1 770 1614 139 6
01 0 663 773 767 774 83 3 771 .792156862745098 .819607843137255 .933333333333333
 81 1 663 1702 121 601 770 0 658 665 775 81 1 773 1613 139 645 0 648 647 770 776
 83 3 774 .792156862745098 .819607843137255 .933333333333333 81 1 648 1698 121 6
45 773 0 644 652 777 81 1 647 1612 139 643 0 644 722 773 778 83 3 776 .792156862
745098 .819607843137255 .933333333333333 81 1 722 1611 139 432 0 652 719 647 779
 83 3 778 .792156862745098 .819607843137255 .933333333333333 81 1 652 1699 121 4
32 722 0 648 655 780 83 3 779 .792156862745098 .819607843137255 .933333333333333
 82 1 780 68550886 82 1 777 67961052 81 1 658 1701 121 626 721 0 655 663 781 82
 1 775 67829980 81 1 721 1609 139 626 0 658 657 719 782 82 1 781 -96075557 81 1
 657 1608 139 260 0 655 0 721 783 83 3 782 .792156862745098 .819607843137255 .93
3333333333333 83 3 783 .792156862745098 .819607843137255 .933333333333333 82 1 7
72 67698908 82 1 769 67567836 82 1 766 67305702 82 1 763 67436774 82 1 760 -1417
54150 82 1 757 -145686310 82 1 754 -135003942 82 1 751 -138936102 82 1 748 -1103
62405 82 1 745 -114425637 82 1 742 -103350053 82 1 739 -107413285 83 3 723 .7921
56862745098 .819607843137255 .933333333333333 15 715 1203 0 784 709 0 17 784 0 7
15 785 786 293 316 577 0 0 -17 785 0 715 322 784 308 295 571 0 0 -17 786 0 715 7
84 322 314 564 562 0 0 -17 316 0 414 517 419 314 784 577 0 787 +17 517 0 414 292
 316 311 787 515 0 788 +17 419 0 414 316 274 293 789 513 0 784 +17 787 0 650 564
 313 314 517 515 0 786 -15 650 225 0 787 645 0 17 564 0 650 540 787 320 786 562
 0 594 +17 313 0 650 787 540 311 790 560 0 517 +17 540 0 650 313 564 317 594 538
 0 790 +17 790 0 710 301 788 317 313 560 0 0 -15 710 1224 0 788 705 0 17 301 0 7
10 602 790 299 319 567 0 583 -17 788 0 710 790 602 311 292 575 0 0 -17 602 0 710
 788 301 290 583 581 0 0 -17 292 0 414 520 517 290 788 575 0 600 +17 600 0 599 5
83 289 290 520 518 0 602 -17 319 0 591 594 592 317 301 567 0 540 +17 594 0 591 3
10 319 320 540 538 0 0 -17 310 0 591 642 594 308 322 569 0 537 +17 322 0 715 786
 785 320 310 569 0 564 -17 537 0 656 295 504 308 642 535 0 785 +17 295 0 656 789
 537 293 785 571 0 419 +17 504 0 656 537 789 365 273 500 0 642 +17 789 0 656 504
 295 376 419 513 0 0 -17 273 0 271 269 367 376 504 500 0 789 -17 274 0 414 419 4
15 376 269 275 0 273 +82 1 708 -85655332 82 1 704 -83689252 82 1 701 1008140518
 15 697 912 0 449 693 0 17 449 0 697 452 452 344 791 447 0 792 +17 452 0 697 449
 449 341 346 450 0 791 +17 791 0 694 461 792 341 449 447 0 0 -17 792 0 694 791 4
55 344 458 456 0 0 -15 694 905 0 455 689 0 17 455 0 694 792 461 403 641 446 0 0
 +17 458 0 625 371 346 403 792 456 0 455 +17 346 0 625 458 343 344 452 450 0 449
 -17 343 0 625 346 349 341 461 453 0 452 -17 349 0 625 343 473 347 402 531 0 461
 +17 461 0 694 455 791 347 343 453 0 641 +17 641 0 591 402 405 347 455 446 0 0 -
17 402 0 591 793 641 396 349 531 0 473 -17 793 0 591 624 402 356 470 459 0 0 -16
 531 794 0 ?349 529 528 527 529 528 7 17 473 0 625 349 355 396 794 471 0 470 +17
 355 0 625 473 352 353 467 465 0 464 -17 794 0 686 795 470 353 473 471 0 0 -17 4
70 0 686 794 476 396 793 459 0 0 +15 686 833 0 470 682 0 17 476 0 686 470 795 35
6 352 468 0 793 +17 795 0 686 476 794 350 464 462 0 0 -17 352 0 625 355 358 350
 476 468 0 467 -17 467 0 690 464 464 350 355 465 0 795 +15 690 840 0 464 685 0 1
7 464 0 690 467 467 353 795 462 0 794 +16 528 866 0 ?371 531 505 527 531 529 7 1
7 624 0 591 623 793 373 358 529 0 551 -17 623 0 591 331 624 338 375 505 0 0 -17
 331 0 591 613 623 329 340 588 0 547 +17 613 0 591 304 331 332 547 508 0 0 -17 3
04 0 591 593 613 302 334 565 0 281 +15 677 680 0 632 674 0 17 632 0 677 633 633
 382 391 490 0 494 -17 633 0 677 632 632 386 494 492 0 630 -17 494 0 625 499 630
 382 633 492 0 0 +82 1 659 2055078115 82 1 649 68419814 17 361 0 414 378 627 359
 394 474 0 489 +17 389 0 629 391 385 382 499 497 0 632 -19 261 268 0 7 0 17 13 S
0 74 20 259 3 0 0 718 699 10 0 0 0 0 0 0 0 0 0 0 0 0 0 0 0 0 0 74 20 6 1 0 0 2 0
 0 0 0 0 0 0 0 0 0 0 0 0 0 0 0 0 0 0 80 2 5 796 797 9000 0 0 0 0 3 5 0 0 0 TFFFF
FFFFFFFFF9 1 79 18 797 MULTI_BODY_ID_20011 0 
